<?xml version="1.0" encoding="utf-8" ?>
<svg baseProfile="full" height="712.0mm" version="1.1" viewBox="-18 -217.0 1314 712.0" width="1314mm" xmlns="http://www.w3.org/2000/svg" xmlns:ev="http://www.w3.org/2001/xml-events" xmlns:xlink="http://www.w3.org/1999/xlink"><defs /><polyline fill="none" points="0,0 0,278 214,278 214,0 0,0" stroke="black" stroke-width="1.2" /><polyline fill="none" points="214,0 214,278 648,278 648,0 214,0" stroke="black" stroke-width="1.2" /><polyline fill="none" points="648,0 648,278 862,278 862,0 648,0" stroke="black" stroke-width="1.2" /><polyline fill="none" points="862,0 862,278 1296,278 1296,0 862,0" stroke="black" stroke-width="1.2" /><polyline fill="none" points="2.75,278 2.75,495.0 211.25,495.0 211.25,278 2.75,278" stroke="black" stroke-width="1.2" /><polyline fill="none" points="2.75,0 2.75,-217.0 211.25,-217.0 211.25,0 2.75,0" stroke="black" stroke-width="1.2" /><polyline fill="none" points="216.75,278 216.75,385.0 645.25,385.0 645.25,278 216.75,278" stroke="black" stroke-width="1.2" /><polyline fill="none" points="216.75,0 216.75,-107.0 645.25,-107.0 645.25,0 216.75,0" stroke="black" stroke-width="1.2" /><polyline fill="none" points="650.75,278 650.75,495.0 859.25,495.0 859.25,278 650.75,278" stroke="black" stroke-width="1.2" /><polyline fill="none" points="650.75,0 650.75,-217.0 859.25,-217.0 859.25,0 650.75,0" stroke="black" stroke-width="1.2" /><polyline fill="none" points="864.75,278 864.75,385.0 1293.25,385.0 1293.25,278 864.75,278" stroke="black" stroke-width="1.2" /><polyline fill="none" points="864.75,0 864.75,-107.0 1293.25,-107.0 1293.25,0 864.75,0" stroke="black" stroke-width="1.2" /><polyline fill="none" points="-18,3 -18,275 0,278 0,0 -18,3" stroke="black" stroke-width="1.2" /><line fill="none" stroke="#0066ff" stroke-dasharray="10,6" stroke-opacity="0.9" stroke-width="1.5" x1="215.25" x2="215.25" y1="0" y2="278" /><line fill="none" stroke="#0066ff" stroke-dasharray="10,6" stroke-opacity="0.9" stroke-width="1.5" x1="649.25" x2="649.25" y1="0" y2="278" /><line fill="none" stroke="#0066ff" stroke-dasharray="10,6" stroke-opacity="0.9" stroke-width="1.5" x1="863.25" x2="863.25" y1="0" y2="278" /><line fill="none" stroke="#0066ff" stroke-dasharray="10,6" stroke-opacity="0.9" stroke-width="1.5" x1="1.25" x2="1.25" y1="0" y2="278" /><line fill="none" stroke="#0066ff" stroke-dasharray="10,6" stroke-opacity="0.9" stroke-width="1.5" x1="0" x2="1296" y1="1.25" y2="1.25" /><line fill="none" stroke="#0066ff" stroke-dasharray="10,6" stroke-opacity="0.9" stroke-width="1.5" x1="0" x2="1296" y1="276.75" y2="276.75" /></svg>