<?xml version="1.0" encoding="utf-8" ?>
<svg baseProfile="full" height="492.0mm" version="1.1" width="1381.6mm" xmlns="http://www.w3.org/2000/svg" xmlns:ev="http://www.w3.org/2001/xml-events" xmlns:xlink="http://www.w3.org/1999/xlink"><defs /><line fill="none" stroke="black" stroke-width="1" x1="0" x2="0" y1="0" y2="492.0" /><line fill="none" stroke="black" stroke-width="1" x1="85.60000000000001" x2="85.60000000000001" y1="0" y2="492.0" /><line fill="none" stroke="black" stroke-width="1" x1="519.6" x2="519.6" y1="0" y2="492.0" /><line fill="none" stroke="black" stroke-width="1" x1="733.6" x2="733.6" y1="0" y2="492.0" /><line fill="none" stroke="black" stroke-width="1" x1="1167.6" x2="1167.6" y1="0" y2="492.0" /><line fill="none" stroke="black" stroke-width="1" x1="1381.6" x2="1381.6" y1="0" y2="492.0" /><line fill="none" stroke="black" stroke-width="1" x1="0" x2="1381.6" y1="0" y2="0" /><line fill="none" stroke="black" stroke-width="1" x1="0" x2="1381.6" y1="492.0" y2="492.0" /><line stroke="red" stroke-dasharray="6,4" stroke-width="0.8" x1="0" x2="1381.6" y1="107.0" y2="107.0" /><line stroke="red" stroke-dasharray="6,4" stroke-width="0.8" x1="0" x2="1381.6" y1="385.0" y2="385.0" /><line stroke="red" stroke-dasharray="6,4" stroke-width="0.8" x1="85.60000000000001" x2="85.60000000000001" y1="0" y2="492.0" /><line stroke="red" stroke-dasharray="6,4" stroke-width="0.8" x1="519.6" x2="519.6" y1="0" y2="492.0" /><line stroke="red" stroke-dasharray="6,4" stroke-width="0.8" x1="733.6" x2="733.6" y1="0" y2="492.0" /><line fill="none" stroke="black" stroke-width="1" x1="85.60000000000001" x2="85.60000000000001" y1="0" y2="107.0" /><line fill="none" stroke="black" stroke-width="1" x1="85.60000000000001" x2="85.60000000000001" y1="385.0" y2="492.0" /><line fill="none" stroke="black" stroke-width="1" x1="519.6" x2="519.6" y1="0" y2="107.0" /><line fill="none" stroke="black" stroke-width="1" x1="519.6" x2="519.6" y1="385.0" y2="492.0" /><line fill="none" stroke="black" stroke-width="1" x1="733.6" x2="733.6" y1="0" y2="107.0" /><line fill="none" stroke="black" stroke-width="1" x1="733.6" x2="733.6" y1="385.0" y2="492.0" /><line fill="none" stroke="black" stroke-width="1" x1="1167.6" x2="1167.6" y1="0" y2="107.0" /><line fill="none" stroke="black" stroke-width="1" x1="1167.6" x2="1167.6" y1="385.0" y2="492.0" /></svg>