0
SECTION
2
HEADER
0
ENDSEC
0
SECTION
2
TABLES
0
TABLE
2
LAYER
70
1
0
LAYER
2
CUT
70
0
62
7
6
CONTINUOUS
0
ENDTAB
0
ENDSEC
0
SECTION
2
ENTITIES
0
LWPOLYLINE
8
CUT
90
65
70
0
10
40.0
20
0.0
10
39.80738906688788
20
-3.920685613182424
10
39.23141121612922
20
-7.8036128806451295
10
38.27761342928835
20
-11.611387090178493
10
36.95518130045147
20
-15.307337294603592
10
35.276850573934205
20
-18.855869473039906
10
33.25878449210181
20
-22.222809320784087
10
30.92041813450948
20
-25.37573136654582
10
28.284271247461902
20
-28.2842712474619
10
25.37573136654582
20
-30.92041813450948
10
22.22280932078409
20
-33.25878449210181
10
18.855869473039903
20
-35.276850573934205
10
15.307337294603593
20
-36.95518130045147
10
11.611387090178493
20
-38.27761342928835
10
7.803612880645133
20
-39.23141121612922
10
3.920685613182422
20
-39.80738906688788
10
2.4492935982947065e-15
20
-40.0
10
-3.920685613182426
20
-39.80738906688788
10
-7.803612880645128
20
-39.23141121612922
10
-11.611387090178496
20
-38.27761342928835
10
-15.307337294603588
20
-36.95518130045147
10
-18.85586947303991
20
-35.276850573934205
10
-22.222809320784094
20
-33.2587844921018
10
-25.375731366545814
20
-30.920418134509482
10
-28.2842712474619
20
-28.284271247461902
10
-30.92041813450948
20
-25.37573136654582
10
-33.25878449210181
20
-22.222809320784087
10
-35.2768505739342
20
-18.855869473039913
10
-36.95518130045147
20
-15.307337294603595
10
-38.27761342928835
20
-11.611387090178496
10
-39.23141121612922
20
-7.803612880645127
10
-39.80738906688787
20
-3.920685613182433
10
-40.0
20
-4.898587196589413e-15
10
-39.80738906688788
20
3.9206856131824237
10
-39.23141121612922
20
7.803612880645135
10
-38.27761342928836
20
11.611387090178484
10
-36.95518130045147
20
15.307337294603586
10
-35.276850573934205
20
18.855869473039906
10
-33.25878449210181
20
22.22280932078409
10
-30.920418134509482
20
25.37573136654581
10
-28.28427124746191
20
28.2842712474619
10
-25.375731366545832
20
30.920418134509468
10
-22.222809320784087
20
33.25878449210181
10
-18.855869473039917
20
35.2768505739342
10
-15.307337294603581
20
36.95518130045147
10
-11.611387090178498
20
38.27761342928835
10
-7.803612880645146
20
39.23141121612921
10
-3.920685613182418
20
39.80738906688788
10
-7.347880794884118e-15
20
40.0
10
3.9206856131824037
20
39.80738906688788
10
7.803612880645132
20
39.23141121612922
10
11.611387090178482
20
38.27761342928836
10
15.3073372946036
20
36.955181300451464
10
18.855869473039903
20
35.276850573934205
10
22.222809320784073
20
33.25878449210182
10
25.375731366545825
20
30.920418134509475
10
28.284271247461895
20
28.28427124746191
10
30.92041813450949
20
25.37573136654581
10
33.25878449210181
20
22.222809320784087
10
35.27685057393419
20
18.85586947303992
10
36.95518130045147
20
15.307337294603583
10
38.27761342928835
20
11.6113870901785
10
39.23141121612921
20
7.803612880645149
10
39.80738906688788
20
3.92068561318242
10
40.0
20
9.797174393178826e-15
0
ENDSEC
0
EOF