  0
SECTION
  2
HEADER
  9
$ACADVER
  1
AC1024
  9
$ACADMAINTVER
 70
6
  9
$DWGCODEPAGE
  3
ANSI_1252
  9
$LASTSAVEDBY
  1
ezdxf
  9
$INSBASE
 10
0.0
 20
0.0
 30
0.0
  9
$EXTMIN
 10
1e+20
 20
1e+20
 30
1e+20
  9
$EXTMAX
 10
-1e+20
 20
-1e+20
 30
-1e+20
  9
$LIMMIN
 10
0.0
 20
0.0
  9
$LIMMAX
 10
420.0
 20
297.0
  9
$ORTHOMODE
 70
0
  9
$REGENMODE
 70
1
  9
$FILLMODE
 70
1
  9
$QTEXTMODE
 70
0
  9
$MIRRTEXT
 70
1
  9
$LTSCALE
 40
1.0
  9
$ATTMODE
 70
1
  9
$TEXTSIZE
 40
2.5
  9
$TRACEWID
 40
1.0
  9
$TEXTSTYLE
  7
Standard
  9
$CLAYER
  8
0
  9
$CELTYPE
  6
ByLayer
  9
$CECOLOR
 62
256
  9
$CELTSCALE
 40
1.0
  9
$DISPSILH
 70
0
  9
$DIMSCALE
 40
1.0
  9
$DIMASZ
 40
2.5
  9
$DIMEXO
 40
0.625
  9
$DIMDLI
 40
3.75
  9
$DIMRND
 40
0.0
  9
$DIMDLE
 40
0.0
  9
$DIMEXE
 40
1.25
  9
$DIMTP
 40
0.0
  9
$DIMTM
 40
0.0
  9
$DIMTXT
 40
2.5
  9
$DIMCEN
 40
2.5
  9
$DIMTSZ
 40
0.0
  9
$DIMTOL
 70
0
  9
$DIMLIM
 70
0
  9
$DIMTIH
 70
0
  9
$DIMTOH
 70
0
  9
$DIMSE1
 70
0
  9
$DIMSE2
 70
0
  9
$DIMTAD
 70
1
  9
$DIMZIN
 70
8
  9
$DIMBLK
  1

  9
$DIMASO
 70
1
  9
$DIMSHO
 70
1
  9
$DIMPOST
  1

  9
$DIMAPOST
  1

  9
$DIMALT
 70
0
  9
$DIMALTD
 70
3
  9
$DIMALTF
 40
0.03937007874
  9
$DIMLFAC
 40
1.0
  9
$DIMTOFL
 70
1
  9
$DIMTVP
 40
0.0
  9
$DIMTIX
 70
0
  9
$DIMSOXD
 70
0
  9
$DIMSAH
 70
0
  9
$DIMBLK1
  1

  9
$DIMBLK2
  1

  9
$DIMSTYLE
  2
ISO-25
  9
$DIMCLRD
 70
0
  9
$DIMCLRE
 70
0
  9
$DIMCLRT
 70
0
  9
$DIMTFAC
 40
1.0
  9
$DIMGAP
 40
0.625
  9
$DIMJUST
 70
0
  9
$DIMSD1
 70
0
  9
$DIMSD2
 70
0
  9
$DIMTOLJ
 70
0
  9
$DIMTZIN
 70
8
  9
$DIMALTZ
 70
0
  9
$DIMALTTZ
 70
0
  9
$DIMUPT
 70
0
  9
$DIMDEC
 70
2
  9
$DIMTDEC
 70
2
  9
$DIMALTU
 70
2
  9
$DIMALTTD
 70
3
  9
$DIMTXSTY
  7
Standard
  9
$DIMAUNIT
 70
0
  9
$DIMADEC
 70
0
  9
$DIMALTRND
 40
0.0
  9
$DIMAZIN
 70
0
  9
$DIMDSEP
 70
44
  9
$DIMATFIT
 70
3
  9
$DIMFRAC
 70
0
  9
$DIMLDRBLK
  1

  9
$DIMLUNIT
 70
2
  9
$DIMLWD
 70
-2
  9
$DIMLWE
 70
-2
  9
$DIMTMOVE
 70
0
  9
$DIMFXL
 40
1.0
  9
$DIMFXLON
 70
0
  9
$DIMJOGANG
 40
0.785398163397
  9
$DIMTFILL
 70
0
  9
$DIMTFILLCLR
 70
0
  9
$DIMARCSYM
 70
0
  9
$DIMLTYPE
  6

  9
$DIMLTEX1
  6

  9
$DIMLTEX2
  6

  9
$DIMTXTDIRECTION
 70
0
  9
$LUNITS
 70
2
  9
$LUPREC
 70
4
  9
$SKETCHINC
 40
1.0
  9
$FILLETRAD
 40
10.0
  9
$AUNITS
 70
0
  9
$AUPREC
 70
2
  9
$MENU
  1
.
  9
$ELEVATION
 40
0.0
  9
$PELEVATION
 40
0.0
  9
$THICKNESS
 40
0.0
  9
$LIMCHECK
 70
0
  9
$CHAMFERA
 40
0.0
  9
$CHAMFERB
 40
0.0
  9
$CHAMFERC
 40
0.0
  9
$CHAMFERD
 40
0.0
  9
$SKPOLY
 70
0
  9
$TDCREATE
 40
2461110.527013889
  9
$TDUCREATE
 40
2458532.153996898
  9
$TDUPDATE
 40
2461110.527013889
  9
$TDUUPDATE
 40
2458532.1544311
  9
$TDINDWG
 40
0.0
  9
$TDUSRTIMER
 40
0.0
  9
$USRTIMER
 70
1
  9
$ANGBASE
 50
0.0
  9
$ANGDIR
 70
0
  9
$PDMODE
 70
0
  9
$PDSIZE
 40
0.0
  9
$PLINEWID
 40
0.0
  9
$SPLFRAME
 70
0
  9
$SPLINETYPE
 70
6
  9
$SPLINESEGS
 70
8
  9
$HANDSEED
  5
50
  9
$SURFTAB1
 70
6
  9
$SURFTAB2
 70
6
  9
$SURFTYPE
 70
6
  9
$SURFU
 70
6
  9
$SURFV
 70
6
  9
$UCSBASE
  2

  9
$UCSNAME
  2

  9
$UCSORG
 10
0.0
 20
0.0
 30
0.0
  9
$UCSXDIR
 10
1.0
 20
0.0
 30
0.0
  9
$UCSYDIR
 10
0.0
 20
1.0
 30
0.0
  9
$UCSORTHOREF
  2

  9
$UCSORTHOVIEW
 70
0
  9
$UCSORGTOP
 10
0.0
 20
0.0
 30
0.0
  9
$UCSORGBOTTOM
 10
0.0
 20
0.0
 30
0.0
  9
$UCSORGLEFT
 10
0.0
 20
0.0
 30
0.0
  9
$UCSORGRIGHT
 10
0.0
 20
0.0
 30
0.0
  9
$UCSORGFRONT
 10
0.0
 20
0.0
 30
0.0
  9
$UCSORGBACK
 10
0.0
 20
0.0
 30
0.0
  9
$PUCSBASE
  2

  9
$PUCSNAME
  2

  9
$PUCSORG
 10
0.0
 20
0.0
 30
0.0
  9
$PUCSXDIR
 10
1.0
 20
0.0
 30
0.0
  9
$PUCSYDIR
 10
0.0
 20
1.0
 30
0.0
  9
$PUCSORTHOREF
  2

  9
$PUCSORTHOVIEW
 70
0
  9
$PUCSORGTOP
 10
0.0
 20
0.0
 30
0.0
  9
$PUCSORGBOTTOM
 10
0.0
 20
0.0
 30
0.0
  9
$PUCSORGLEFT
 10
0.0
 20
0.0
 30
0.0
  9
$PUCSORGRIGHT
 10
0.0
 20
0.0
 30
0.0
  9
$PUCSORGFRONT
 10
0.0
 20
0.0
 30
0.0
  9
$PUCSORGBACK
 10
0.0
 20
0.0
 30
0.0
  9
$USERI1
 70
0
  9
$USERI2
 70
0
  9
$USERI3
 70
0
  9
$USERI4
 70
0
  9
$USERI5
 70
0
  9
$USERR1
 40
0.0
  9
$USERR2
 40
0.0
  9
$USERR3
 40
0.0
  9
$USERR4
 40
0.0
  9
$USERR5
 40
0.0
  9
$WORLDVIEW
 70
1
  9
$SHADEDGE
 70
3
  9
$SHADEDIF
 70
70
  9
$TILEMODE
 70
1
  9
$MAXACTVP
 70
64
  9
$PINSBASE
 10
0.0
 20
0.0
 30
0.0
  9
$PLIMCHECK
 70
0
  9
$PEXTMIN
 10
1e+20
 20
1e+20
 30
1e+20
  9
$PEXTMAX
 10
-1e+20
 20
-1e+20
 30
-1e+20
  9
$PLIMMIN
 10
0.0
 20
0.0
  9
$PLIMMAX
 10
420.0
 20
297.0
  9
$UNITMODE
 70
0
  9
$VISRETAIN
 70
1
  9
$PLINEGEN
 70
0
  9
$PSLTSCALE
 70
1
  9
$TREEDEPTH
 70
3020
  9
$CMLSTYLE
  2
Standard
  9
$CMLJUST
 70
0
  9
$CMLSCALE
 40
20.0
  9
$PROXYGRAPHICS
 70
1
  9
$MEASUREMENT
 70
1
  9
$CELWEIGHT
370
-1
  9
$ENDCAPS
280
0
  9
$JOINSTYLE
280
0
  9
$LWDISPLAY
290
0
  9
$INSUNITS
 70
6
  9
$HYPERLINKBASE
  1

  9
$STYLESHEET
  1

  9
$XEDIT
290
1
  9
$CEPSNTYPE
380
0
  9
$PSTYLEMODE
290
1
  9
$FINGERPRINTGUID
  2
{22A6F659-FB39-4532-8910-00016DC4A6D4}
  9
$VERSIONGUID
  2
{83431A54-99D3-4C83-B8DB-DF1DEF1FD29A}
  9
$EXTNAMES
290
1
  9
$PSVPSCALE
 40
0.0
  9
$OLESTARTUP
290
0
  9
$SORTENTS
280
127
  9
$INDEXCTL
280
0
  9
$HIDETEXT
280
1
  9
$XCLIPFRAME
280
1
  9
$HALOGAP
280
0
  9
$OBSCOLOR
 70
257
  9
$OBSLTYPE
280
0
  9
$INTERSECTIONDISPLAY
280
0
  9
$INTERSECTIONCOLOR
 70
257
  9
$DIMASSOC
280
2
  9
$PROJECTNAME
  1

  9
$CAMERADISPLAY
290
0
  9
$LENSLENGTH
 40
50.0
  9
$CAMERAHEIGHT
 40
0.0
  9
$STEPSPERSEC
 40
24.0
  9
$STEPSIZE
 40
100.0
  9
$3DDWFPREC
 40
2.0
  9
$PSOLWIDTH
 40
0.005
  9
$PSOLHEIGHT
 40
0.08
  9
$LOFTANG1
 40
1.570796326795
  9
$LOFTANG2
 40
1.570796326795
  9
$LOFTMAG1
 40
0.0
  9
$LOFTMAG2
 40
0.0
  9
$LOFTPARAM
 70
7
  9
$LOFTNORMALS
280
1
  9
$LATITUDE
 40
37.795
  9
$LONGITUDE
 40
-122.394
  9
$NORTHDIRECTION
 40
0.0
  9
$TIMEZONE
 70
-8000
  9
$LIGHTGLYPHDISPLAY
280
1
  9
$TILEMODELIGHTSYNCH
280
1
  9
$CMATERIAL
347
20
  9
$SOLIDHIST
280
0
  9
$SHOWHIST
280
1
  9
$DWFFRAME
280
2
  9
$DGNFRAME
280
2
  9
$REALWORLDSCALE
290
1
  9
$INTERFERECOLOR
 62
256
  9
$CSHADOW
280
0
  9
$SHADOWPLANELOCATION
 40
0.0
  0
ENDSEC
  0
SECTION
  2
CLASSES
  0
CLASS
  1
ACDBDICTIONARYWDFLT
  2
AcDbDictionaryWithDefault
  3
ObjectDBX Classes
 90
0
 91
0
280
0
281
0
  0
CLASS
  1
SUN
  2
AcDbSun
  3
SCENEOE
 90
1153
 91
0
280
0
281
0
  0
CLASS
  1
VISUALSTYLE
  2
AcDbVisualStyle
  3
ObjectDBX Classes
 90
4095
 91
0
280
0
281
0
  0
CLASS
  1
MATERIAL
  2
AcDbMaterial
  3
ObjectDBX Classes
 90
1153
 91
0
280
0
281
0
  0
CLASS
  1
SCALE
  2
AcDbScale
  3
ObjectDBX Classes
 90
1153
 91
0
280
0
281
0
  0
CLASS
  1
TABLESTYLE
  2
AcDbTableStyle
  3
ObjectDBX Classes
 90
4095
 91
0
280
0
281
0
  0
CLASS
  1
MLEADERSTYLE
  2
AcDbMLeaderStyle
  3
ACDB_MLEADERSTYLE_CLASS
 90
4095
 91
0
280
0
281
0
  0
CLASS
  1
DICTIONARYVAR
  2
AcDbDictionaryVar
  3
ObjectDBX Classes
 90
0
 91
0
280
0
281
0
  0
CLASS
  1
CELLSTYLEMAP
  2
AcDbCellStyleMap
  3
ObjectDBX Classes
 90
1152
 91
0
280
0
281
0
  0
CLASS
  1
MENTALRAYRENDERSETTINGS
  2
AcDbMentalRayRenderSettings
  3
SCENEOE
 90
1024
 91
0
280
0
281
0
  0
CLASS
  1
ACDBDETAILVIEWSTYLE
  2
AcDbDetailViewStyle
  3
ObjectDBX Classes
 90
1025
 91
0
280
0
281
0
  0
CLASS
  1
ACDBSECTIONVIEWSTYLE
  2
AcDbSectionViewStyle
  3
ObjectDBX Classes
 90
1025
 91
0
280
0
281
0
  0
CLASS
  1
RASTERVARIABLES
  2
AcDbRasterVariables
  3
ISM
 90
0
 91
0
280
0
281
0
  0
CLASS
  1
ACDBPLACEHOLDER
  2
AcDbPlaceHolder
  3
ObjectDBX Classes
 90
0
 91
0
280
0
281
0
  0
CLASS
  1
LAYOUT
  2
AcDbLayout
  3
ObjectDBX Classes
 90
0
 91
0
280
0
281
0
  0
ENDSEC
  0
SECTION
  2
TABLES
  0
TABLE
  2
VPORT
  5
8
330
0
100
AcDbSymbolTable
 70
1
  0
VPORT
  5
23
330
8
100
AcDbSymbolTableRecord
100
AcDbViewportTableRecord
  2
*Active
 70
0
 10
0.0
 20
0.0
 11
1.0
 21
1.0
 12
0.0
 22
0.0
 13
0.0
 23
0.0
 14
0.5
 24
0.5
 15
0.5
 25
0.5
 16
0.0
 26
0.0
 36
1.0
 17
0.0
 27
0.0
 37
0.0
 40
1000.0
 41
1.34
 42
50.0
 43
0.0
 44
0.0
 50
0.0
 51
0.0
 71
0
 72
1000
 73
1
 74
3
 75
0
 76
0
 77
0
 78
0
281
0
 65
0
146
0.0
  0
ENDTAB
  0
TABLE
  2
LTYPE
  5
2
330
0
100
AcDbSymbolTable
 70
3
  0
LTYPE
  5
24
330
2
100
AcDbSymbolTableRecord
100
AcDbLinetypeTableRecord
  2
ByBlock
 70
0
  3

 72
65
 73
0
 40
0.0
  0
LTYPE
  5
25
330
2
100
AcDbSymbolTableRecord
100
AcDbLinetypeTableRecord
  2
ByLayer
 70
0
  3

 72
65
 73
0
 40
0.0
  0
LTYPE
  5
26
330
2
100
AcDbSymbolTableRecord
100
AcDbLinetypeTableRecord
  2
Continuous
 70
0
  3

 72
65
 73
0
 40
0.0
  0
ENDTAB
  0
TABLE
  2
LAYER
  5
1
330
0
100
AcDbSymbolTable
 70
2
  0
LAYER
  5
27
330
1
100
AcDbSymbolTableRecord
100
AcDbLayerTableRecord
  2
0
 70
0
 62
7
  6
Continuous
370
-3
390
13
347
21
  0
LAYER
  5
28
330
1
100
AcDbSymbolTableRecord
100
AcDbLayerTableRecord
  2
Defpoints
 70
0
 62
7
  6
Continuous
290
0
370
-3
390
13
347
21
  0
ENDTAB
  0
TABLE
  2
STYLE
  5
5
330
0
100
AcDbSymbolTable
 70
1
  0
STYLE
  5
29
330
5
100
AcDbSymbolTableRecord
100
AcDbTextStyleTableRecord
  2
Standard
 70
0
 40
0.0
 41
1.0
 50
0.0
 71
0
 42
2.5
  3
txt
  4

  0
ENDTAB
  0
TABLE
  2
VIEW
  5
7
330
0
100
AcDbSymbolTable
 70
0
  0
ENDTAB
  0
TABLE
  2
UCS
  5
6
330
0
100
AcDbSymbolTable
 70
0
  0
ENDTAB
  0
TABLE
  2
APPID
  5
3
330
0
100
AcDbSymbolTable
 70
3
  0
APPID
  5
2A
330
3
100
AcDbSymbolTableRecord
100
AcDbRegAppTableRecord
  2
ACAD
 70
0
  0
APPID
  5
4D
330
3
100
AcDbSymbolTableRecord
100
AcDbRegAppTableRecord
  2
HATCHBACKGROUNDCOLOR
 70
0
  0
APPID
  5
4E
330
3
100
AcDbSymbolTableRecord
100
AcDbRegAppTableRecord
  2
EZDXF
 70
0
  0
ENDTAB
  0
TABLE
  2
DIMSTYLE
  5
4
330
0
100
AcDbSymbolTable
 70
1
100
AcDbDimStyleTable
  0
DIMSTYLE
105
2B
330
4
100
AcDbSymbolTableRecord
100
AcDbDimStyleTableRecord
  2
Standard
 70
0
 40
1.0
 41
2.5
 42
0.625
 43
3.75
 44
1.25
 45
0.0
 46
0.0
 47
0.0
 48
0.0
 49
2.5
140
2.5
141
2.5
142
0.0
143
0.03937007874
144
1.0
145
0.0
146
1.0
147
0.625
148
0.0
 69
0
 70
0
 71
0
 72
0
 73
0
 74
0
 75
0
 76
0
 77
1
 78
8
 79
3
170
0
171
3
172
1
173
0
174
0
175
0
176
0
177
0
178
0
179
2
271
2
272
2
273
2
274
3
275
0
276
0
277
2
278
44
279
0
280
0
281
0
282
0
283
0
284
8
285
0
286
0
288
0
289
3
290
0
371
-2
372
-2
  0
ENDTAB
  0
TABLE
  2
BLOCK_RECORD
  5
9
330
0
100
AcDbSymbolTable
 70
2
  0
BLOCK_RECORD
  5
17
330
9
100
AcDbSymbolTableRecord
100
AcDbBlockTableRecord
  2
*Model_Space
340
1A
 70
0
280
1
281
0
  0
BLOCK_RECORD
  5
1B
330
9
100
AcDbSymbolTableRecord
100
AcDbBlockTableRecord
  2
*Paper_Space
340
1E
 70
0
280
1
281
0
  0
ENDTAB
  0
ENDSEC
  0
SECTION
  2
BLOCKS
  0
BLOCK
  5
18
330
17
100
AcDbEntity
  8
0
100
AcDbBlockBegin
  2
*Model_Space
 70
0
 10
0.0
 20
0.0
 30
0.0
  3
*Model_Space
  1

  0
ENDBLK
  5
19
330
17
100
AcDbEntity
  8
0
100
AcDbBlockEnd
  0
BLOCK
  5
1C
330
1B
100
AcDbEntity
  8
0
100
AcDbBlockBegin
  2
*Paper_Space
 70
0
 10
0.0
 20
0.0
 30
0.0
  3
*Paper_Space
  1

  0
ENDBLK
  5
1D
330
1B
100
AcDbEntity
  8
0
100
AcDbBlockEnd
  0
ENDSEC
  0
SECTION
  2
ENTITIES
  0
LWPOLYLINE
  5
2F
330
17
100
AcDbEntity
  8
CONTOUR
100
AcDbPolyline
 90
4
 70
1
 10
5689.0
 20
2030.0
 10
5689.0
 20
2028.0
 10
5692.0
 20
2029.0
 10
5689.0
 20
2030.0
  0
LWPOLYLINE
  5
30
330
17
100
AcDbEntity
  8
CONTOUR
100
AcDbPolyline
 90
7
 70
1
 10
5677.0
 20
1961.0
 10
5677.0
 20
1964.0
 10
5674.0
 20
1963.0
 10
5674.0
 20
1958.0
 10
5680.0
 20
1957.0
 10
5680.0
 20
1959.0
 10
5677.0
 20
1961.0
  0
LWPOLYLINE
  5
31
330
17
100
AcDbEntity
  8
CONTOUR
100
AcDbPolyline
 90
10
 70
1
 10
5666.0
 20
1894.0
 10
5659.0
 20
1894.0
 10
5659.0
 20
1892.0
 10
5666.0
 20
1891.0
 10
5666.0
 20
1885.0
 10
5669.0
 20
1886.0
 10
5668.0
 20
1893.0
 10
5672.0
 20
1896.0
 10
5667.0
 20
1898.0
 10
5666.0
 20
1894.0
  0
LWPOLYLINE
  5
32
330
17
100
AcDbEntity
  8
CONTOUR
100
AcDbPolyline
 90
6
 70
1
 10
5681.0
 20
1830.0
 10
5679.0
 20
1829.0
 10
5679.0
 20
1827.0
 10
5683.0
 20
1827.0
 10
5681.0
 20
1829.0
 10
5681.0
 20
1830.0
  0
LWPOLYLINE
  5
33
330
17
100
AcDbEntity
  8
CONTOUR
100
AcDbPolyline
 90
6
 70
1
 10
5628.0
 20
1746.0
 10
5621.0
 20
1747.0
 10
5618.0
 20
1744.0
 10
5623.0
 20
1744.0
 10
5624.0
 20
1746.0
 10
5628.0
 20
1746.0
  0
LWPOLYLINE
  5
34
330
17
100
AcDbEntity
  8
CONTOUR
100
AcDbPolyline
 90
5
 70
1
 10
5613.0
 20
1744.0
 10
5613.0
 20
1740.0
 10
5617.0
 20
1741.0
 10
5618.0
 20
1744.0
 10
5613.0
 20
1744.0
  0
LWPOLYLINE
  5
35
330
17
100
AcDbEntity
  8
CONTOUR
100
AcDbPolyline
 90
5
 70
1
 10
5609.0
 20
1736.0
 10
5610.0
 20
1734.0
 10
5613.0
 20
1734.0
 10
5613.0
 20
1738.0
 10
5609.0
 20
1736.0
  0
LWPOLYLINE
  5
36
330
17
100
AcDbEntity
  8
CONTOUR
100
AcDbPolyline
 90
15
 70
1
 10
5615.0
 20
1630.0
 10
5615.0
 20
1640.0
 10
5617.0
 20
1643.0
 10
5612.0
 20
1643.0
 10
5611.0
 20
1647.0
 10
5609.0
 20
1647.0
 10
5608.0
 20
1641.0
 10
5606.0
 20
1641.0
 10
5604.0
 20
1638.0
 10
5612.0
 20
1638.0
 10
5613.0
 20
1629.0
 10
5610.0
 20
1626.0
 10
5621.0
 20
1627.0
 10
5621.0
 20
1629.0
 10
5615.0
 20
1630.0
  0
LWPOLYLINE
  5
37
330
17
100
AcDbEntity
  8
CONTOUR
100
AcDbPolyline
 90
4
 70
1
 10
5646.0
 20
1516.0
 10
5647.714285714285
 20
1518.857142857143
 10
5646.0
 20
1518.0
 10
5646.0
 20
1516.0
  0
LWPOLYLINE
  5
38
330
17
100
AcDbEntity
  8
CONTOUR
100
AcDbPolyline
 90
4
 70
1
 10
5516.0
 20
1464.0
 10
5517.0
 20
1456.0
 10
5518.0
 20
1465.0
 10
5516.0
 20
1464.0
  0
LWPOLYLINE
  5
39
330
17
100
AcDbEntity
  8
CONTOUR
100
AcDbPolyline
 90
5
 70
1
 10
5721.0
 20
1319.0
 10
5721.0
 20
1317.0
 10
5724.0
 20
1317.0
 10
5725.0
 20
1319.0
 10
5721.0
 20
1319.0
  0
LWPOLYLINE
  5
3A
330
17
100
AcDbEntity
  8
CONTOUR
100
AcDbPolyline
 90
9
 70
1
 10
5731.0
 20
1191.0
 10
5732.0
 20
1199.0
 10
5736.0
 20
1199.0
 10
5737.0
 20
1201.0
 10
5731.0
 20
1201.0
 10
5731.0
 20
1194.0
 10
5729.0
 20
1193.0
 10
5729.0
 20
1191.0
 10
5731.0
 20
1191.0
  0
LWPOLYLINE
  5
3B
330
17
100
AcDbEntity
  8
CONTOUR
100
AcDbPolyline
 90
1252
 70
1
 10
485.0
 20
1549.0
 10
486.98
 20
1502.47
 10
486.0
 20
1501.0
 10
486.0
 20
1499.0
 10
484.5
 20
1494.5
 10
483.0
 20
1493.0
 10
482.85
 20
1489.55
 10
482.0
 20
1487.0
 10
482.0
 20
1470.0
 10
485.0
 20
1464.0
 10
485.0
 20
1455.0
 10
489.0
 20
1449.0
 10
487.0
 20
1425.0
 10
489.0
 20
1415.0
 10
487.0
 20
1398.0
 10
487.0
 20
1350.0
 10
489.0
 20
1319.0
 10
488.0
 20
1196.0
 10
490.0
 20
1184.0
 10
489.0
 20
1014.0
 10
491.0
 20
993.0
 10
490.0
 20
976.0
 10
492.0
 20
964.0
 10
492.0
 20
943.0
 10
490.0
 20
940.0
 10
492.0
 20
929.0
 10
492.0
 20
875.0
 10
490.0
 20
864.0
 10
490.0
 20
825.0
 10
492.0
 20
814.0
 10
491.0
 20
700.0
 10
493.0
 20
669.0
 10
493.0
 20
668.0
 10
493.0
 20
478.0
 10
496.0
 20
450.0
 10
498.85714285714283
 20
442.8571428571429
 10
499.0
 20
442.0
 10
499.3333333333333
 20
441.66666666666674
 10
500.0
 20
440.0
 10
507.0
 20
434.0
 10
521.0
 20
433.0
 10
526.0
 20
429.0
 10
651.0
 20
432.0
 10
699.0
 20
430.0
 10
763.0
 20
431.0
 10
776.0
 20
429.0
 10
799.0
 20
431.0
 10
807.0
 20
429.0
 10
840.0
 20
430.0
 10
851.0
 20
428.0
 10
864.0
 20
430.0
 10
921.0
 20
428.0
 10
956.9836734693878
 20
428.6204081632652
 10
990.7378640776699
 20
427.19417475728164
 10
992.0
 20
427.0
 10
993.2931034482758
 20
427.08620689655163
 10
1019.0
 20
426.0
 10
1234.0
 20
426.0
 10
1245.0
 20
424.0
 10
1254.0497737556561
 20
424.09049773755646
 10
1255.0
 20
424.0
 10
1255.752688172043
 20
424.10752688172033
 10
1276.578947368421
 20
424.31578947368416
 10
1278.0
 20
424.0
 10
1345.0
 20
425.0
 10
1356.0
 20
423.0
 10
1413.0
 20
424.0
 10
1426.0
 20
422.0
 10
1477.0
 20
422.0
 10
1483.0
 20
424.0
 10
1498.0
 20
424.0
 10
1499.0
 20
424.0
 10
1503.0
 20
429.0
 10
1503.5098039215686
 20
443.27450980392155
 10
1505.0
 20
447.0
 10
1503.865671641791
 20
453.2388059701493
 10
1504.0
 20
457.0
 10
1503.0
 20
484.5
 10
1503.0
 20
561.0
 10
1503.0
 20
571.0
 10
1502.5774647887324
 20
579.0281690140846
 10
1500.765690376569
 20
656.3305439330543
 10
1500.0
 20
811.0
 10
1503.0
 20
878.0
 10
1500.0
 20
899.0
 10
1501.0
 20
926.0
 10
1499.0
 20
930.6666666666667
 10
1499.0
 20
938.0
 10
1508.0
 20
940.7
 10
1511.0
 20
941.0
 10
1522.0
 20
941.0
 10
1529.0
 20
937.0
 10
1532.0
 20
933.0
 10
1531.0
 20
859.0
 10
1533.0
 20
819.0
 10
1531.0
 20
816.0
 10
1533.0
 20
813.0
 10
1532.0
 20
763.0
 10
1533.2734082397003
 20
745.8089887640449
 10
1533.181434599156
 20
734.7721518987341
 10
1532.0
 20
733.0
 10
1532.0
 20
721.0
 10
1533.0
 20
713.0
 10
1534.0
 20
705.0
 10
1533.0
 20
704.0
 10
1533.0089285714287
 20
703.6785714285713
 10
1531.0
 20
701.0
 10
1533.0
 20
698.0
 10
1533.0
 20
684.0
 10
1531.0
 20
681.0
 10
1533.0
 20
678.0
 10
1532.0
 20
666.0
 10
1534.0
 20
664.0
 10
1533.0
 20
647.0
 10
1534.75
 20
622.5
 10
1534.5666666666666
 20
615.5333333333333
 10
1533.0
 20
603.0
 10
1534.0601503759399
 20
596.2857142857142
 10
1534.0
 20
594.0
 10
1536.0
 20
584.0
 10
1536.0
 20
547.0
 10
1534.0
 20
544.0
 10
1535.0
 20
528.0
 10
1525.0
 20
528.0
 10
1524.0
 20
526.0
 10
1532.0
 20
524.0
 10
1535.0315789473684
 20
518.6947368421052
 10
1535.0
 20
518.0
 10
1536.0
 20
515.0
 10
1536.0
 20
510.0
 10
1532.0
 20
502.0
 10
1531.0
 20
500.0
 10
1533.0
 20
495.0
 10
1533.0
 20
483.5
 10
1532.5
 20
480.25
 10
1527.0
 20
472.0
 10
1530.0
 20
468.0
 10
1529.5217391304348
 20
459.86956521739125
 10
1529.0
 20
459.0
 10
1529.0
 20
451.0
 10
1532.0
 20
443.0
 10
1531.561403508772
 20
436.42105263157896
 10
1531.0
 20
436.0
 10
1531.0
 20
428.0
 10
1539.0
 20
420.0
 10
1542.0
 20
419.0
 10
1607.0
 20
421.0
 10
1615.0
 20
419.0
 10
1738.0
 20
420.0
 10
1746.0
 20
418.0
 10
1812.0
 20
419.0
 10
1818.0
 20
417.0
 10
1963.0
 20
417.0
 10
1979.0
 20
415.0
 10
1998.0
 20
417.0
 10
2006.0
 20
413.0
 10
2011.0
 20
413.0
 10
2014.0
 20
415.0
 10
2025.3793103448277
 20
414.3103448275863
 10
2026.0
 20
414.0
 10
2029.1121495327102
 20
414.08411214953276
 10
2047.0
 20
413.0
 10
2108.5510204081634
 20
413.53061224489807
 10
2125.0
 20
413.0
 10
2128.8823529411766
 20
413.7058823529412
 10
2163.0
 20
414.0
 10
2166.0
 20
412.0
 10
2166.3050847457625
 20
412.01694915254234
 10
2168.0
 20
411.0
 10
2173.0
 20
411.0
 10
2175.2727272727275
 20
412.5151515151515
 10
2179.0344827586205
 20
412.7241379310344
 10
2198.0
 20
411.0
 10
2227.0
 20
411.0
 10
2244.0
 20
414.0
 10
2284.0
 20
414.0
 10
2304.0
 20
411.0
 10
2311.0
 20
411.0
 10
2315.0
 20
413.0
 10
2347.0
 20
411.0
 10
2354.0
 20
413.0
 10
2398.0
 20
413.0
 10
2406.0
 20
411.0
 10
2414.0
 20
411.0
 10
2470.0
 20
411.0
 10
2508.0
 20
411.0
 10
2509.0
 20
403.0
 10
2511.0
 20
400.0
 10
2525.0
 20
388.0
 10
2529.0
 20
388.0
 10
2534.0
 20
391.0
 10
2560.0
 20
398.0
 10
2589.0
 20
398.0
 10
2591.0
 20
406.0
 10
2595.390243902439
 20
406.43902439024396
 10
2600.0
 20
406.0
 10
2606.140703517588
 20
406.9447236180904
 10
2618.3389830508477
 20
406.8135593220338
 10
2622.0
 20
406.0
 10
2694.0
 20
406.0
 10
2696.0
 20
404.0
 10
2697.0
 20
398.0
 10
2712.0
 20
390.0
 10
2729.0
 20
389.0
 10
2742.0
 20
393.0
 10
2754.0
 20
399.0
 10
2756.0
 20
404.0
 10
2798.0
 20
405.0
 10
2803.0
 20
403.0
 10
2811.0
 20
403.0
 10
2812.0
 20
397.0
 10
2815.0
 20
395.0
 10
2828.0
 20
397.0
 10
2829.0
 20
403.0
 10
2835.0
 20
403.0
 10
2836.0
 20
396.0
 10
2854.0
 20
395.0
 10
2858.0
 20
400.0
 10
2858.4615384615386
 20
400.1538461538462
 10
2864.6666666666665
 20
401.0
 10
2886.0
 20
401.0
 10
2890.0
 20
399.0
 10
2891.3333333333335
 20
399.0
 10
2894.0
 20
398.0
 10
2904.0
 20
399.0
 10
2909.0
 20
402.0
 10
2909.0
 20
403.0
 10
2909.0
 20
413.0
 10
2906.0
 20
421.0
 10
2905.6666666666665
 20
421.33333333333326
 10
2905.0
 20
423.0
 10
2902.0
 20
425.0
 10
2897.3846153846152
 20
425.7692307692307
 10
2894.0
 20
430.0
 10
2894.0
 20
456.0
 10
2889.0
 20
464.0
 10
2889.0
 20
495.0
 10
2891.0
 20
502.0
 10
2892.0
 20
531.0
 10
2891.0
 20
605.0
 10
2893.0
 20
624.0
 10
2892.0
 20
657.0
 10
2891.058064516129
 20
662.1806451612904
 10
2891.532710280374
 20
696.3551401869158
 10
2892.0
 20
705.0
 10
2891.747474747475
 20
711.8181818181818
 10
2892.0
 20
730.0
 10
2891.0196078431372
 20
731.4705882352941
 10
2891.0
 20
732.0
 10
2890.0
 20
734.5
 10
2890.0
 20
746.0
 10
2890.0
 20
747.0
 10
2888.0
 20
749.0
 10
2888.0
 20
764.0
 10
2891.0
 20
768.0
 10
2891.0
 20
771.0
 10
2890.0
 20
772.5
 10
2890.0
 20
773.0
 10
2889.0
 20
774.5
 10
2889.0
 20
799.0
 10
2888.0
 20
801.0
 10
2888.0
 20
854.0
 10
2887.0
 20
859.0
 10
2887.0
 20
881.0
 10
2888.0
 20
883.0
 10
2887.9454545454546
 20
884.3636363636363
 10
2889.0
 20
887.0
 10
2889.0
 20
892.0
 10
2887.553191489362
 20
894.1702127659576
 10
2887.0
 20
908.0
 10
2890.0
 20
912.0
 10
2889.0
 20
916.0
 10
2889.0
 20
919.0
 10
2888.175
 20
921.75
 10
2889.0
 20
930.0
 10
2905.0
 20
930.0
 10
2911.0
 20
930.0
 10
2918.0
 20
923.0
 10
2917.6363636363635
 20
917.909090909091
 10
2917.0
 20
916.0
 10
2917.168
 20
911.3520000000001
 10
2917.0
 20
909.0
 10
2917.42
 20
904.3800000000001
 10
2919.0
 20
860.6666666666667
 10
2919.0
 20
792.0
 10
2918.0
 20
787.0
 10
2918.0
 20
781.0
 10
2917.0
 20
774.0
 10
2918.0
 20
762.0
 10
2918.0
 20
664.0
 10
2916.0
 20
661.0
 10
2918.0
 20
659.0
 10
2919.9827586206898
 20
657.0172413793102
 10
2919.153846153846
 20
609.7692307692307
 10
2918.0
 20
604.0
 10
2919.304347826087
 20
595.5217391304348
 10
2920.0
 20
583.0
 10
2920.0
 20
550.5
 10
2919.4
 20
541.8
 10
2918.0
 20
539.0
 10
2919.875
 20
520.25
 10
2920.5384615384614
 20
508.3076923076924
 10
2919.0
 20
506.0
 10
2920.875
 20
502.25
 10
2920.942857142857
 20
501.02857142857147
 10
2920.0
 20
485.0
 10
2922.0
 20
482.0
 10
2922.0
 20
452.0
 10
2920.0
 20
447.0
 10
2920.0
 20
439.0
 10
2920.5925925925926
 20
436.62962962962956
 10
2922.0
 20
412.0
 10
2924.0
 20
409.0
 10
2925.0
 20
409.0
 10
2969.0
 20
409.0
 10
2985.0
 20
407.0
 10
3007.0
 20
408.0
 10
3023.0
 20
407.0
 10
3027.0
 20
403.0
 10
3055.0
 20
402.0
 10
3120.0
 20
403.0
 10
3126.0
 20
401.0
 10
3131.5
 20
401.08333333333326
 10
3132.0
 20
401.0
 10
3192.0
 20
402.0
 10
3205.0
 20
400.0
 10
3275.777777777778
 20
400.7777777777778
 10
3346.0
 20
399.0
 10
3378.0
 20
400.0
 10
3394.0
 20
398.0
 10
3522.0
 20
398.0
 10
3527.0
 20
394.0
 10
3716.0
 20
394.0
 10
3725.0
 20
393.0
 10
3730.0
 20
394.0
 10
3786.0
 20
394.0
 10
3792.0
 20
400.0
 10
3799.0
 20
400.0
 10
3834.0
 20
394.0
 10
3872.0
 20
394.0
 10
3880.0
 20
396.0
 10
3890.0
 20
396.0
 10
3897.0
 20
394.0
 10
3917.5172413793102
 20
393.41379310344837
 10
3926.0
 20
392.0
 10
3929.2368421052633
 20
393.07894736842104
 10
3932.0
 20
393.0
 10
3933.5
 20
394.5
 10
3935.0
 20
395.0
 10
3935.0
 20
396.0
 10
3935.476439790576
 20
435.06806282722505
 10
3942.0
 20
436.0
 10
3952.0
 20
435.0
 10
3956.779411764706
 20
432.1323529411766
 10
3955.935483870968
 20
421.1612903225807
 10
3954.0
 20
416.0
 10
3954.0
 20
411.0
 10
3955.0
 20
409.0
 10
3957.0
 20
405.0
 10
3958.5555555555557
 20
404.55555555555566
 10
3959.0
 20
404.0
 10
3960.5
 20
404.0
 10
3964.0
 20
403.0
 10
3968.0
 20
399.0
 10
3968.181818181818
 20
397.909090909091
 10
3968.0
 20
395.0
 10
3968.8275862068967
 20
394.0344827586207
 10
3969.0
 20
393.0
 10
3974.0
 20
388.0
 10
3975.0
 20
387.0
 10
3984.6666666666665
 20
388.0
 10
3986.0
 20
388.0
 10
3986.3478260869565
 20
388.17391304347825
 10
4004.0
 20
390.0
 10
4059.1331269349844
 20
389.01547987616095
 10
4070.0
 20
384.0
 10
4093.0
 20
383.0
 10
4097.0
 20
379.0
 10
4099.0
 20
379.0
 10
4104.0
 20
382.0
 10
4104.0
 20
384.0
 10
4108.0
 20
388.0
 10
4126.618618618619
 20
390.97897897897906
 10
4136.445945945946
 20
390.85135135135124
 10
4139.0
 20
390.0
 10
4161.0
 20
390.0
 10
4163.024691358025
 20
390.50617283950623
 10
4177.402777777777
 20
390.31944444444434
 10
4179.0
 20
390.0
 10
4184.111111111111
 20
390.2323232323233
 10
4202.0
 20
390.0
 10
4203.0
 20
388.0
 10
4212.0
 20
388.0
 10
4228.0
 20
388.0
 10
4231.428571428572
 20
389.1428571428571
 10
4246.0
 20
390.0
 10
4261.0
 20
387.0
 10
4267.0
 20
387.0
 10
4272.333333333333
 20
389.0
 10
4322.0
 20
389.0
 10
4327.0
 20
388.0
 10
4356.0
 20
389.0
 10
4374.0
 20
387.0
 10
4376.526315789473
 20
387.0451127819549
 10
4377.0
 20
387.0
 10
4379.0
 20
380.0
 10
4383.0
 20
377.0
 10
4391.0
 20
377.0
 10
4396.0
 20
380.0
 10
4414.0
 20
380.0
 10
4426.0
 20
376.0
 10
4450.0
 20
377.0
 10
4451.875
 20
385.4375
 10
4457.0
 20
388.0
 10
4471.04
 20
387.48
 10
4474.0
 20
386.0
 10
4474.0
 20
382.0
 10
4480.0
 20
380.0
 10
4480.0
 20
372.0
 10
4503.0
 20
371.0
 10
4504.0
 20
379.0
 10
4507.6
 20
382.5999999999999
 10
4508.418604651163
 20
383.04651162790697
 10
4517.0
 20
384.0
 10
4517.0
 20
374.0
 10
4512.0
 20
369.0
 10
4511.0
 20
364.0
 10
4507.0
 20
360.0
 10
4507.0
 20
355.0
 10
4509.0
 20
355.0
 10
4512.0
 20
364.0
 10
4518.0
 20
367.0
 10
4518.0
 20
371.0
 10
4522.0
 20
377.0
 10
4523.0
 20
383.0
 10
4527.654205607477
 20
386.8785046728972
 10
4537.0
 20
388.0
 10
4542.0
 20
386.0
 10
4545.666666666667
 20
386.0
 10
4550.0
 20
385.0
 10
4560.1
 20
385.0
 10
4562.666666666667
 20
382.66666666666674
 10
4566.0
 20
378.0
 10
4570.0
 20
376.0
 10
4581.0
 20
375.0
 10
4609.0
 20
376.0
 10
4629.0
 20
374.0
 10
4639.0
 20
384.0
 10
4667.0
 20
383.0
 10
4672.0
 20
385.0
 10
4684.622950819672
 20
384.639344262295
 10
4692.0
 20
383.0
 10
4707.0
 20
384.0
 10
4718.0
 20
375.0
 10
4776.0
 20
374.0
 10
4781.0
 20
376.0
 10
4781.032258064516
 20
376.0967741935483
 10
4788.0
 20
379.0
 10
4801.0
 20
378.0
 10
4807.0
 20
382.0
 10
4864.0
 20
382.0
 10
4877.0
 20
380.0
 10
4900.013245033113
 20
380.9205298013244
 10
4901.0
 20
375.0
 10
4920.0
 20
371.0
 10
4925.0
 20
373.0
 10
4926.0
 20
380.0
 10
4931.714285714285
 20
380.7142857142858
 10
4934.021978021978
 20
380.86813186813197
 10
4935.0
 20
375.0
 10
4941.0
 20
370.0
 10
4966.0
 20
371.0
 10
4975.0
 20
373.0
 10
4976.0
 20
377.0
 10
4982.0
 20
377.0
 10
4985.0
 20
374.0
 10
4985.967741935484
 20
374.0322580645161
 10
4986.0
 20
374.0
 10
4999.0
 20
374.0
 10
5000.555555555556
 20
374.5185185185185
 10
5011.666666666667
 20
374.8888888888889
 10
5029.0
 20
372.0
 10
5042.0
 20
372.0
 10
5045.0
 20
375.0
 10
5052.0
 20
375.0
 10
5056.0
 20
371.0
 10
5063.0
 20
371.0
 10
5063.84
 20
371.55999999999995
 10
5070.0
 20
372.0
 10
5073.0
 20
367.0
 10
5081.0
 20
367.0
 10
5086.0
 20
365.0
 10
5088.98814229249
 20
365.08300395256924
 10
5089.0
 20
365.0
 10
5097.0
 20
365.0
 10
5097.051162790698
 20
365.30697674418616
 10
5113.209302325581
 20
365.7558139534883
 10
5151.0
 20
365.0
 10
5151.004149377593
 20
365.0331950207469
 10
5152.0
 20
365.0
 10
5156.0
 20
363.0
 10
5167.0
 20
363.0
 10
5239.0
 20
363.0
 10
5244.0
 20
361.0
 10
5260.0
 20
359.0
 10
5318.658536585366
 20
357.41463414634154
 10
5342.0
 20
355.0
 10
5341.0
 20
361.0
 10
5336.0
 20
364.0
 10
5336.0
 20
371.0
 10
5344.0
 20
374.0
 10
5344.0
 20
381.0
 10
5339.0
 20
384.0
 10
5330.111111111111
 20
384.8888888888889
 10
5328.0
 20
387.0
 10
5324.0
 20
407.0
 10
5324.0
 20
420.0
 10
5321.0
 20
442.0
 10
5322.0
 20
459.0
 10
5320.0
 20
483.0
 10
5322.0
 20
499.0
 10
5322.0
 20
543.0
 10
5329.0
 20
550.0
 10
5329.0
 20
551.0
 10
5329.0
 20
558.0
 10
5331.0
 20
560.0
 10
5367.0
 20
563.0
 10
5368.0
 20
566.0
 10
5354.0
 20
569.0
 10
5352.0
 20
574.0
 10
5340.0
 20
573.0
 10
5338.0
 20
576.0
 10
5336.0
 20
577.0
 10
5334.0
 20
578.0
 10
5323.0
 20
577.0
 10
5318.0
 20
581.0
 10
5309.0
 20
581.0
 10
5306.0
 20
585.0
 10
5306.0
 20
610.5
 10
5307.0
 20
613.0
 10
5308.428571428572
 20
630.6190476190477
 10
5309.0
 20
635.0
 10
5309.372093023256
 20
642.2558139534883
 10
5310.0
 20
650.0
 10
5309.941176470588
 20
653.3529411764705
 10
5311.0
 20
674.0
 10
5309.471698113208
 20
680.1132075471698
 10
5309.0
 20
707.0
 10
5312.0
 20
718.0
 10
5311.0
 20
817.0
 10
5313.0
 20
821.0
 10
5314.0
 20
823.0
 10
5313.0
 20
846.0
 10
5312.074074074074
 20
848.7777777777778
 10
5312.0
 20
851.0
 10
5311.0
 20
852.5
 10
5311.0
 20
860.5
 10
5312.0
 20
867.0
 10
5311.0
 20
869.5
 10
5311.0
 20
873.5
 10
5312.0
 20
875.0
 10
5311.95652173913
 20
875.4347826086957
 10
5313.0
 20
877.0
 10
5312.0
 20
888.0
 10
5320.0
 20
889.0
 10
5325.0
 20
886.0
 10
5329.0
 20
886.0
 10
5331.0
 20
890.0
 10
5351.0
 20
889.0
 10
5350.0
 20
873.0
 10
5351.518072289156
 20
866.1686746987953
 10
5352.0
 20
844.0
 10
5350.0
 20
840.0
 10
5350.0
 20
797.5
 10
5349.0
 20
788.0
 10
5350.0
 20
760.0
 10
5353.0
 20
756.0
 10
5368.0
 20
755.0
 10
5383.0
 20
757.0
 10
5430.0
 20
758.0
 10
5440.563106796117
 20
759.2427184466019
 10
5460.0
 20
760.0
 10
5464.0
 20
762.0
 10
5484.0
 20
762.0
 10
5485.0
 20
762.0
 10
5490.0
 20
767.0
 10
5494.0
 20
847.0
 10
5494.0
 20
869.0
 10
5492.0
 20
871.0
 10
5494.0
 20
933.0
 10
5493.0
 20
988.0
 10
5494.0
 20
996.0
 10
5499.0
 20
998.0
 10
5493.0
 20
1003.0
 10
5493.0
 20
1016.0
 10
5493.0
 20
1036.0
 10
5495.0
 20
1064.0
 10
5494.0
 20
1105.0
 10
5503.0
 20
1106.0
 10
5503.0
 20
1108.0
 10
5494.0
 20
1109.0
 10
5494.0
 20
1126.0
 10
5502.0
 20
1127.0
 10
5502.0
 20
1129.0
 10
5495.0
 20
1130.0
 10
5495.0
 20
1142.0
 10
5500.0
 20
1143.0
 10
5501.0
 20
1147.0
 10
5495.0
 20
1149.0
 10
5495.0
 20
1156.0
 10
5493.0
 20
1158.0
 10
5495.0
 20
1220.0
 10
5494.0
 20
1246.0
 10
5503.0
 20
1247.0
 10
5503.0
 20
1249.0
 10
5495.0
 20
1250.0
 10
5496.0
 20
1266.0
 10
5500.0
 20
1267.0
 10
5500.0
 20
1269.0
 10
5497.0
 20
1269.0
 10
5495.0
 20
1271.0
 10
5496.0
 20
1281.0
 10
5494.0
 20
1283.0
 10
5494.0
 20
1313.0
 10
5501.0
 20
1315.0
 10
5500.32
 20
1325.88
 10
5500.524590163935
 20
1332.8360655737706
 10
5502.0
 20
1338.0
 10
5501.0
 20
1349.0
 10
5495.0
 20
1353.0
 10
5495.0
 20
1364.0
 10
5499.0
 20
1368.0
 10
5499.0
 20
1370.0
 10
5494.0
 20
1371.0
 10
5494.0
 20
1386.0
 10
5494.0
 20
1409.0
 10
5496.0
 20
1424.0
 10
5504.0
 20
1423.0
 10
5505.0
 20
1426.0
 10
5513.0
 20
1426.0
 10
5513.0
 20
1428.0
 10
5509.0
 20
1432.0
 10
5509.0
 20
1438.0
 10
5512.0
 20
1439.0
 10
5512.0
 20
1444.0
 10
5516.0
 20
1446.0
 10
5516.0
 20
1452.0
 10
5519.0
 20
1453.0
 10
5519.0
 20
1455.0
 10
5517.0
 20
1456.0
 10
5515.0
 20
1454.0
 10
5515.0
 20
1449.0
 10
5511.0
 20
1445.0
 10
5503.0
 20
1445.0
 10
5502.0
 20
1438.0
 10
5496.0
 20
1438.0
 10
5494.0
 20
1443.0
 10
5494.0
 20
1455.0
 10
5501.0
 20
1456.0
 10
5502.0
 20
1458.0
 10
5499.0
 20
1458.0
 10
5498.0
 20
1461.0
 10
5495.0
 20
1463.0
 10
5495.0
 20
1474.0
 10
5504.0
 20
1476.0
 10
5504.0
 20
1487.0
 10
5494.0
 20
1487.0
 10
5493.0
 20
1498.0
 10
5497.0
 20
1500.0
 10
5497.0
 20
1502.0
 10
5493.0
 20
1505.0
 10
5493.0
 20
1508.0
 10
5493.0
 20
1510.0
 10
5489.4
 20
1510.0
 10
5484.0
 20
1513.0
 10
5474.0
 20
1513.0
 10
5470.0
 20
1515.0
 10
5444.222222222223
 20
1515.888888888889
 10
5439.117647058823
 20
1516.3529411764707
 10
5425.0
 20
1519.0
 10
5398.0
 20
1520.0
 10
5383.0
 20
1523.0
 10
5357.0
 20
1524.0
 10
5354.0
 20
1526.0
 10
5351.32
 20
1523.99
 10
5351.0
 20
1524.0
 10
5350.869565217391
 20
1523.6521739130435
 10
5350.0
 20
1523.0
 10
5347.0
 20
1513.0
 10
5348.0
 20
1501.0
 10
5348.0
 20
1497.0
 10
5350.635294117647
 20
1462.0823529411764
 10
5350.0
 20
1457.0
 10
5352.0
 20
1444.0
 10
5352.0
 20
1406.0
 10
5350.0
 20
1403.0
 10
5351.0
 20
1395.0
 10
5344.777777777777
 20
1394.111111111111
 10
5341.0
 20
1396.0
 10
5340.666666666667
 20
1396.0
 10
5339.0
 20
1397.0
 10
5336.0
 20
1397.0
 10
5333.666666666667
 20
1396.0
 10
5333.0
 20
1396.0
 10
5329.0
 20
1394.0
 10
5313.0
 20
1394.0
 10
5310.0
 20
1398.0
 10
5310.0
 20
1413.0
 10
5310.0
 20
1447.0
 10
5311.0
 20
1454.0
 10
5310.461538461538
 20
1476.076923076923
 10
5312.0
 20
1483.0
 10
5310.181818181818
 20
1487.5454545454545
 10
5310.132911392405
 20
1489.5506329113923
 10
5311.235294117647
 20
1502.4117647058824
 10
5312.0
 20
1507.0
 10
5312.0
 20
1511.3333333333335
 10
5313.0
 20
1523.0
 10
5312.0
 20
1526.0
 10
5312.0
 20
1545.5
 10
5313.0
 20
1547.0
 10
5312.0
 20
1573.0
 10
5312.0
 20
1575.0
 10
5311.851851851852
 20
1576.8518518518517
 10
5311.0
 20
1599.0
 10
5318.0
 20
1601.0
 10
5311.0
 20
1602.0
 10
5311.0
 20
1629.0
 10
5313.0
 20
1632.0
 10
5313.0
 20
1650.0
 10
5312.478260869565
 20
1651.8260869565217
 10
5312.02
 20
1669.24
 10
5312.0952380952385
 20
1670.142857142857
 10
5314.0
 20
1673.0
 10
5314.0
 20
1678.0
 10
5312.928571428572
 20
1680.142857142857
 10
5313.0
 20
1681.0
 10
5312.022222222222
 20
1682.4666666666667
 10
5313.0
 20
1703.0
 10
5311.0
 20
1705.0
 10
5311.0
 20
1736.0
 10
5309.0
 20
1740.0
 10
5309.0
 20
1749.0
 10
5311.0
 20
1752.0
 10
5312.0
 20
1760.0
 10
5311.0
 20
1780.0
 10
5319.5
 20
1782.4285714285716
 10
5327.75
 20
1784.0
 10
5333.0
 20
1784.0
 10
5334.0
 20
1794.0
 10
5332.727272727273
 20
1795.909090909091
 10
5332.0
 20
1825.0
 10
5334.0
 20
1831.0
 10
5334.0
 20
1839.0
 10
5337.333333333333
 20
1842.3333333333333
 10
5340.0
 20
1843.0
 10
5341.0
 20
1843.0
 10
5342.333333333333
 20
1845.3333333333333
 10
5344.0
 20
1847.0
 10
5344.135135135135
 20
1848.4864864864865
 10
5345.0
 20
1850.0
 10
5345.0
 20
1858.0
 10
5342.8125
 20
1864.5625
 10
5342.0
 20
1880.0
 10
5339.0
 20
1886.0
 10
5338.0
 20
1894.0
 10
5337.142857142857
 20
1895.2857142857142
 10
5337.0
 20
1896.0
 10
5336.56
 20
1896.16
 10
5336.0
 20
1897.0
 10
5332.7692307692305
 20
1897.5384615384614
 10
5327.692307692308
 20
1899.3846153846152
 10
5325.0
 20
1901.0
 10
5319.75
 20
1900.4166666666667
 10
5314.461538461538
 20
1900.7692307692307
 10
5306.0
 20
1905.0
 10
5300.0
 20
1906.0
 10
5285.5
 20
1906.0
 10
5280.185185185185
 20
1906.2592592592591
 10
5268.0
 20
1908.0
 10
5255.835294117647
 20
1907.4470588235295
 10
5224.0
 20
1909.0
 10
5215.333333333333
 20
1909.0
 10
5200.0
 20
1910.0
 10
5187.0
 20
1909.0
 10
5175.0
 20
1911.0
 10
5155.0
 20
1910.0
 10
5151.0
 20
1912.0
 10
5137.0
 20
1913.0
 10
5134.375
 20
1912.90625
 10
5130.0
 20
1914.0
 10
5126.568627450981
 20
1912.627450980392
 10
5109.0
 20
1912.0
 10
5103.0
 20
1915.0
 10
5070.5
 20
1915.0
 10
5066.0
 20
1916.0
 10
4970.0
 20
1915.0
 10
4951.0
 20
1917.0
 10
4935.0
 20
1916.2
 10
4911.666666666667
 20
1917.0
 10
4873.0
 20
1919.0
 10
4867.978723404255
 20
1918.4978723404256
 10
4856.25
 20
1918.9
 10
4848.0
 20
1920.0
 10
4837.492012779553
 20
1919.5431309904154
 10
4795.0
 20
1921.0
 10
4775.8
 20
1921.0
 10
4734.862595419847
 20
1922.6641221374045
 10
4731.0
 20
1923.0
 10
4722.5
 20
1923.1666666666667
 10
4702.0
 20
1924.0
 10
4695.583333333333
 20
1923.6944444444443
 10
4629.0
 20
1925.0
 10
4624.0
 20
1928.0
 10
4622.25
 20
1928.0
 10
4620.0
 20
1929.0
 10
4597.0
 20
1928.0
 10
4593.0
 20
1931.0
 10
4585.071428571428
 20
1930.892857142857
 10
4584.0
 20
1931.0
 10
4580.192307692308
 20
1930.826923076923
 10
4519.0
 20
1930.0
 10
4509.0
 20
1929.0
 10
4503.0
 20
1924.0
 10
4472.5
 20
1924.0
 10
4450.0
 20
1925.0
 10
4424.085106382979
 20
1925.223404255319
 10
4407.0
 20
1926.0
 10
4391.216216216216
 20
1925.5067567567567
 10
4368.30985915493
 20
1925.7042253521126
 10
4356.0
 20
1927.0
 10
4334.0
 20
1926.0
 10
4302.0
 20
1928.0
 10
4296.666666666667
 20
1928.0
 10
4278.0
 20
1929.0
 10
4276.25
 20
1928.0
 10
4276.0
 20
1928.0
 10
4271.0
 20
1925.0
 10
4244.0
 20
1927.0
 10
4240.0
 20
1931.0
 10
4236.0
 20
1927.0
 10
4198.5
 20
1927.0
 10
4190.0
 20
1928.0
 10
4126.0
 20
1927.0
 10
4097.0
 20
1930.0
 10
4036.0
 20
1930.0
 10
4024.0
 20
1929.0
 10
4019.6666666666665
 20
1926.8333333333333
 10
4013.0
 20
1926.0
 10
3983.0
 20
1926.0
 10
3974.3333333333335
 20
1927.4444444444443
 10
3972.0
 20
1929.0
 10
3965.0
 20
1929.0
 10
3956.0
 20
1929.0
 10
3953.4285714285716
 20
1927.7142857142858
 10
3947.0
 20
1927.0
 10
3944.0
 20
1925.0
 10
3942.0
 20
1921.0
 10
3937.0
 20
1901.0
 10
3936.0
 20
1897.0
 10
3937.0
 20
1895.4
 10
3937.0
 20
1895.0
 10
3941.0
 20
1889.0
 10
3942.0
 20
1860.0
 10
3944.0
 20
1856.0
 10
3946.0
 20
1856.0
 10
3952.0
 20
1849.0
 10
3952.0
 20
1843.0
 10
3948.0
 20
1840.0
 10
3946.375
 20
1835.125
 10
3944.5
 20
1832.5
 10
3940.0
 20
1828.0
 10
3937.0
 20
1822.0
 10
3937.0
 20
1815.0
 10
3937.84
 20
1812.76
 10
3938.0
 20
1811.0
 10
3940.0
 20
1807.0
 10
3946.0
 20
1799.0
 10
3946.0
 20
1787.0
 10
3950.0
 20
1764.0
 10
3948.9
 20
1728.8
 10
3947.0
 20
1725.0
 10
3947.0
 20
1668.0
 10
3949.6119402985073
 20
1589.6417910447763
 10
3949.0
 20
1567.0
 10
3951.0
 20
1548.0
 10
3949.0
 20
1494.0
 10
3950.0515463917527
 20
1490.1443298969073
 10
3950.0
 20
1487.0
 10
3952.0
 20
1483.0
 10
3953.0
 20
1452.0
 10
3949.0
 20
1424.0
 10
3949.0
 20
1423.0
 10
3948.0
 20
1421.0
 10
3949.0
 20
1409.0
 10
3943.0
 20
1407.0
 10
3927.0
 20
1406.0
 10
3918.6631578947367
 20
1415.2631578947369
 10
3917.6666666666665
 20
1419.0
 10
3917.0
 20
1425.0
 10
3915.0
 20
1429.0
 10
3916.2413793103447
 20
1449.4827586206898
 10
3917.0
 20
1451.0
 10
3917.0
 20
1462.0
 10
3915.0
 20
1466.0
 10
3916.0
 20
1534.0
 10
3915.6778042959427
 20
1542.5918854415274
 10
3916.0
 20
1579.0
 10
3914.137931034483
 20
1583.655172413793
 10
3914.0352112676055
 20
1586.394366197183
 10
3915.0
 20
1652.0
 10
3912.0795454545455
 20
1692.8863636363635
 10
3913.0
 20
1761.0
 10
3912.0
 20
1765.5
 10
3912.0
 20
1771.5
 10
3913.0
 20
1773.0
 10
3914.0
 20
1774.0
 10
3914.0
 20
1780.0
 10
3913.0
 20
1781.5
 10
3913.0
 20
1782.0
 10
3912.2083333333335
 20
1786.75
 10
3913.0
 20
1801.0
 10
3911.9166666666665
 20
1803.1666666666665
 10
3912.0
 20
1804.0
 10
3910.0
 20
1824.0
 10
3912.0
 20
1853.0
 10
3911.0
 20
1855.0
 10
3909.0
 20
1859.0
 10
3909.0
 20
1878.0
 10
3910.0
 20
1880.0
 10
3910.0
 20
1900.5
 10
3911.0
 20
1904.0
 10
3910.0
 20
1906.0
 10
3910.0
 20
1907.0
 10
3908.0
 20
1910.0
 10
3907.0
 20
1925.0
 10
3906.133333333333
 20
1925.8666666666668
 10
3906.0
 20
1927.0
 10
3749.0
 20
1929.0
 10
3680.0
 20
1928.0
 10
3630.0
 20
1930.0
 10
3606.0
 20
1929.0
 10
3591.0
 20
1932.0
 10
3569.0
 20
1933.0
 10
3350.0
 20
1933.0
 10
3346.0
 20
1935.0
 10
3294.72131147541
 20
1934.2459016393443
 10
3277.0
 20
1935.0
 10
3273.5
 20
1935.0
 10
3269.0
 20
1936.0
 10
3202.0
 20
1935.0
 10
3190.0
 20
1937.0
 10
3168.9921259842517
 20
1936.6377952755906
 10
3167.0
 20
1937.0
 10
3124.0
 20
1937.0
 10
3116.0
 20
1938.0
 10
3067.0
 20
1937.0
 10
3021.8
 20
1938.6
 10
3021.0
 20
1939.0
 10
2993.0
 20
1940.0
 10
2982.25
 20
1940.0
 10
2954.0
 20
1941.0
 10
2916.0
 20
1940.0
 10
2912.0
 20
1937.0
 10
2911.9927797833934
 20
1936.7942238267149
 10
2911.0
 20
1936.0
 10
2910.0
 20
1893.0
 10
2910.1666666666665
 20
1884.75
 10
2910.0
 20
1880.0
 10
2910.787878787879
 20
1854.0
 10
2912.0
 20
1794.0
 10
2912.0
 20
1496.0
 10
2912.1087866108787
 20
1494.9665271966528
 10
2912.0
 20
1483.0
 10
2914.0
 20
1470.0
 10
2914.0
 20
1441.0
 10
2911.0
 20
1432.0
 10
2911.0
 20
1430.5
 10
2910.0
 20
1427.0
 10
2911.0
 20
1418.0
 10
2904.0
 20
1417.0
 10
2902.0
 20
1422.0
 10
2900.0
 20
1422.0
 10
2897.0
 20
1419.0
 10
2883.0
 20
1419.0
 10
2881.5
 20
1420.5
 10
2880.75
 20
1422.75
 10
2880.0
 20
1428.0
 10
2878.0
 20
1431.0
 10
2879.0
 20
1451.0
 10
2877.6857142857143
 20
1453.6285714285714
 10
2877.5068493150684
 20
1466.5068493150684
 10
2879.0
 20
1468.0
 10
2879.0
 20
1472.0
 10
2877.3971631205673
 20
1474.404255319149
 10
2877.0
 20
1503.0
 10
2879.0
 20
1507.0
 10
2880.0
 20
1509.0
 10
2879.0153846153844
 20
1528.6923076923076
 10
2880.0
 20
1530.3333333333335
 10
2882.0
 20
1533.0
 10
2881.0
 20
1549.0
 10
2879.5
 20
1550.5
 10
2879.0
 20
1551.3333333333335
 10
2879.0
 20
1561.0
 10
2881.0
 20
1565.0
 10
2880.0
 20
1570.0
 10
2878.0
 20
1572.0
 10
2878.0
 20
1581.5
 10
2879.0
 20
1583.0
 10
2879.0
 20
1583.5
 10
2880.0
 20
1585.0
 10
2880.0
 20
1589.0
 10
2878.0
 20
1591.0
 10
2879.0
 20
1600.0
 10
2877.0
 20
1603.0
 10
2875.0
 20
1606.0
 10
2876.4615384615386
 20
1626.4615384615386
 10
2878.0
 20
1628.0
 10
2877.0425531914893
 20
1641.404255319149
 10
2878.0
 20
1643.0
 10
2879.0
 20
1656.0
 10
2878.8823529411766
 20
1656.1176470588234
 10
2879.0
 20
1657.0
 10
2874.0
 20
1661.0
 10
2873.0
 20
1671.0
 10
2873.0
 20
1699.0
 10
2875.0
 20
1704.0
 10
2873.8275862068967
 20
1708.103448275862
 10
2874.0
 20
1710.0
 10
2873.0
 20
1714.0
 10
2873.0
 20
1733.0
 10
2880.0
 20
1740.0
 10
2883.0
 20
1746.0
 10
2883.0
 20
1760.0
 10
2884.0
 20
1763.6
 10
2887.0
 20
1772.0
 10
2887.0
 20
1774.4
 10
2888.0
 20
1778.0
 10
2887.0
 20
1795.0
 10
2885.0
 20
1798.0
 10
2883.6
 20
1798.4
 10
2883.0
 20
1799.0
 10
2877.4
 20
1800.6
 10
2874.3333333333335
 20
1803.6666666666665
 10
2873.0
 20
1805.8
 10
2873.0
 20
1811.0
 10
2876.5
 20
1812.0
 10
2878.0
 20
1812.0
 10
2878.4444444444443
 20
1812.5555555555557
 10
2880.0
 20
1813.0
 10
2895.0
 20
1832.0
 10
2894.0
 20
1839.0
 10
2888.0
 20
1844.0
 10
2888.0
 20
1851.0
 10
2892.0
 20
1858.0
 10
2893.0
 20
1862.0
 10
2895.0
 20
1870.0
 10
2895.0
 20
1875.0
 10
2893.9444444444443
 20
1877.111111111111
 10
2894.0
 20
1878.0
 10
2893.5
 20
1878.0
 10
2893.0
 20
1879.0
 10
2893.0
 20
1887.0
 10
2893.0
 20
1895.0
 10
2890.1052631578946
 20
1903.6842105263158
 10
2891.185185185185
 20
1920.962962962963
 10
2892.0
 20
1923.0
 10
2892.0
 20
1933.0
 10
2891.9411764705883
 20
1933.0588235294117
 10
2892.0
 20
1934.0
 10
2889.75
 20
1935.25
 10
2888.0
 20
1937.0
 10
2886.6
 20
1937.0
 10
2883.0
 20
1939.0
 10
2876.0
 20
1938.0
 10
2875.0
 20
1942.0
 10
2865.0
 20
1946.0
 10
2857.0
 20
1946.0
 10
2843.0
 20
1950.0
 10
2829.0
 20
1951.0
 10
2801.5
 20
1951.0
 10
2793.0
 20
1952.0
 10
2769.2727272727275
 20
1951.590909090909
 10
2758.0
 20
1953.0
 10
2754.6785714285716
 20
1951.3392857142858
 10
2746.76512455516
 20
1951.202846975089
 10
2647.0
 20
1954.0
 10
2642.655172413793
 20
1953.6896551724137
 10
2632.0
 20
1954.0
 10
2631.516129032258
 20
1953.989247311828
 10
2630.0
 20
1955.0
 10
2581.2566371681414
 20
1954.0442477876106
 10
2576.9166666666665
 20
1954.8333333333333
 10
2574.8333333333335
 20
1955.6666666666667
 10
2569.0
 20
1959.0
 10
2566.3376623376626
 20
1959.064935064935
 10
2564.0
 20
1960.0
 10
2551.4285714285716
 20
1959.4285714285716
 10
2537.8169014084506
 20
1959.7605633802816
 10
2531.0
 20
1961.0
 10
2527.0
 20
1960.0
 10
2523.0
 20
1954.0
 10
2410.0
 20
1954.0
 10
2396.0
 20
1969.0
 10
2389.0
 20
1973.0
 10
2388.0
 20
1970.0
 10
2394.0
 20
1965.0
 10
2394.0
 20
1959.0
 10
2390.0
 20
1957.0
 10
2389.0
 20
1957.0
 10
2384.0
 20
1954.0
 10
2360.0
 20
1954.0
 10
2351.0
 20
1957.0
 10
2344.0
 20
1954.0
 10
2292.030303030303
 20
1954.530303030303
 10
2245.0
 20
1956.0
 10
2243.1428571428573
 20
1955.952380952381
 10
2240.0
 20
1957.0
 10
2240.0
 20
1967.0
 10
2245.0
 20
1977.0
 10
2245.0
 20
1981.0
 10
2242.0
 20
1978.0
 10
2238.0
 20
1966.0
 10
2238.0
 20
1957.0
 10
2236.16
 20
1955.7733333333333
 10
2220.1375
 20
1955.3625
 10
2194.0
 20
1956.0
 10
2185.0
 20
1960.0
 10
2170.0
 20
1959.0
 10
2167.0
 20
1958.0
 10
2161.0
 20
1956.0
 10
2122.0
 20
1956.0
 10
2104.0
 20
1958.0
 10
2102.0
 20
1965.0
 10
2099.0
 20
1965.0
 10
2096.0
 20
1959.0
 10
2089.9545454545455
 20
1958.1363636363635
 10
2077.0
 20
1959.0
 10
2070.5
 20
1958.0
 10
2051.0
 20
1958.0
 10
2044.0
 20
1965.0
 10
2042.409090909091
 20
1965.6363636363635
 10
2042.0
 20
1966.0
 10
2036.0
 20
1969.0
 10
2034.0
 20
1969.0
 10
2029.0
 20
1971.0
 10
2026.0
 20
1969.0
 10
2023.0
 20
1967.0
 10
2019.0
 20
1967.0
 10
1996.0
 20
1957.0
 10
1988.0
 20
1957.0
 10
1984.0
 20
1959.0
 10
1980.1509433962265
 20
1956.1132075471698
 10
1970.5
 20
1957.4
 10
1969.0
 20
1958.0
 10
1968.0
 20
1963.0
 10
1965.0
 20
1965.0
 10
1953.8979591836735
 20
1964.6734693877552
 10
1949.0
 20
1965.0
 10
1948.9324894514768
 20
1964.5274261603377
 10
1931.0
 20
1964.0
 10
1925.0
 20
1962.0
 10
1910.0
 20
1957.0
 10
1809.0
 20
1957.0
 10
1757.0
 20
1960.0
 10
1706.6538461538462
 20
1959.3461538461538
 10
1704.0
 20
1962.0
 10
1704.0
 20
1968.0
 10
1706.0
 20
1969.0
 10
1706.0
 20
1971.0
 10
1702.0
 20
1967.0
 10
1699.0
 20
1960.0
 10
1680.0
 20
1959.0
 10
1677.0
 20
1961.0
 10
1647.0
 20
1960.0
 10
1633.0
 20
1962.0
 10
1569.625
 20
1961.0815217391305
 10
1559.3846153846155
 20
1963.3076923076924
 10
1556.0
 20
1965.0
 10
1546.0
 20
1967.0
 10
1545.5454545454545
 20
1966.969696969697
 10
1544.0
 20
1968.0
 10
1528.581818181818
 20
1967.0363636363636
 10
1524.0
 20
1969.0
 10
1523.0
 20
1969.0
 10
1518.0
 20
1971.0
 10
1516.0
 20
1969.0
 10
1515.0
 20
1968.0
 10
1514.1666666666667
 20
1962.5833333333333
 10
1514.0
 20
1962.0
 10
1513.9795918367347
 20
1961.3673469387754
 10
1513.0
 20
1955.0
 10
1513.0
 20
1931.0
 10
1518.0
 20
1922.0
 10
1519.0
 20
1901.0
 10
1514.0
 20
1894.0
 10
1511.3333333333333
 20
1883.3333333333333
 10
1509.6
 20
1881.6
 10
1504.0
 20
1880.0
 10
1503.5135135135135
 20
1879.4324324324325
 10
1502.0
 20
1879.0
 10
1498.0
 20
1874.0
 10
1492.0
 20
1874.0
 10
1491.0
 20
1904.0
 10
1489.0
 20
1907.0
 10
1489.0
 20
1947.0
 10
1489.0
 20
1952.0
 10
1486.0
 20
1954.0
 10
1434.0
 20
1956.0
 10
1371.0
 20
1955.0
 10
1355.0
 20
1956.0
 10
1352.0
 20
1958.0
 10
1348.0
 20
1956.0
 10
1285.0
 20
1958.0
 10
1255.0
 20
1957.0
 10
1223.0
 20
1959.0
 10
1217.0
 20
1959.0
 10
1198.0
 20
1960.0
 10
1178.0
 20
1959.0
 10
1171.0
 20
1961.0
 10
1143.3563218390805
 20
1960.5747126436781
 10
1134.0
 20
1961.0
 10
1106.0
 20
1960.0
 10
1097.0
 20
1962.0
 10
1069.0
 20
1961.0
 10
1011.0
 20
1963.0
 10
1008.0
 20
1961.0
 10
938.0
 20
1963.0
 10
916.3548387096774
 20
1962.016129032258
 10
915.961038961039
 20
1962.025974025974
 10
913.0
 20
1964.0
 10
903.8131868131868
 20
1962.3296703296703
 10
890.3333333333334
 20
1962.6666666666667
 10
887.0
 20
1964.0
 10
837.0
 20
1964.0
 10
704.0
 20
1964.0
 10
628.0
 20
1967.0
 10
569.5
 20
1967.0
 10
542.0
 20
1968.0
 10
511.0
 20
1967.0
 10
503.0
 20
1965.0
 10
499.0
 20
1962.0
 10
490.0
 20
1961.0
 10
486.0
 20
1958.0
 10
485.9987669543773
 20
1957.7990135635018
 10
485.0
 20
1957.0
 10
483.0
 20
1941.0
 10
483.0
 20
1836.0
 10
485.0
 20
1806.0
 10
485.0
 20
1795.0
 10
485.0
 20
1549.0
  0
LWPOLYLINE
  5
3C
330
17
100
AcDbEntity
  8
CONTOUR
100
AcDbPolyline
 90
45
 70
1
 10
5723.0
 20
1108.0
 10
5723.0
 20
1104.0
 10
5729.0
 20
1103.0
 10
5728.0
 20
1093.0
 10
5724.0
 20
1091.0
 10
5723.0
 20
1083.0
 10
5715.0
 20
1083.0
 10
5714.0
 20
1088.0
 10
5710.0
 20
1088.0
 10
5708.0
 20
1094.0
 10
5707.0
 20
1088.0
 10
5702.0
 20
1086.0
 10
5702.0
 20
1084.0
 10
5710.0
 20
1084.0
 10
5711.0
 20
1079.0
 10
5717.0
 20
1078.0
 10
5717.0
 20
1070.0
 10
5706.0
 20
1067.0
 10
5707.0
 20
1062.0
 10
5722.0
 20
1063.0
 10
5723.0
 20
1061.0
 10
5725.0
 20
1061.0
 10
5725.0
 20
1071.0
 10
5722.0
 20
1072.0
 10
5722.0
 20
1082.0
 10
5729.0
 20
1083.0
 10
5730.0
 20
1081.0
 10
5737.0
 20
1078.0
 10
5737.0
 20
1080.0
 10
5735.0
 20
1081.0
 10
5735.0
 20
1087.0
 10
5738.0
 20
1093.0
 10
5745.0
 20
1093.0
 10
5746.0
 20
1088.0
 10
5748.0
 20
1088.0
 10
5748.0
 20
1095.0
 10
5751.0
 20
1098.0
 10
5751.0
 20
1102.0
 10
5740.0
 20
1104.0
 10
5740.0
 20
1109.0
 10
5733.0
 20
1108.0
 10
5732.0
 20
1113.0
 10
5730.0
 20
1113.0
 10
5729.0
 20
1109.0
 10
5723.0
 20
1108.0
  0
LWPOLYLINE
  5
3D
330
17
100
AcDbEntity
  8
CONTOUR
100
AcDbPolyline
 90
9
 70
1
 10
5879.0
 20
2207.0
 10
5877.0
 20
2212.0
 10
5875.0
 20
2204.0
 10
5871.0
 20
2202.0
 10
5875.0
 20
2202.0
 10
5876.0
 20
2205.0
 10
5885.0
 20
2205.0
 10
5885.0
 20
2207.0
 10
5879.0
 20
2207.0
  0
LWPOLYLINE
  5
3E
330
17
100
AcDbEntity
  8
CONTOUR
100
AcDbPolyline
 90
5
 70
1
 10
5940.0
 20
2193.0
 10
5940.0
 20
2191.0
 10
5942.0
 20
2191.0
 10
5943.0
 20
2194.0
 10
5940.0
 20
2193.0
  0
LWPOLYLINE
  5
3F
330
17
100
AcDbEntity
  8
CONTOUR
100
AcDbPolyline
 90
5
 70
1
 10
5980.0
 20
2098.0
 10
5980.0
 20
2102.0
 10
5976.0
 20
2102.0
 10
5976.0
 20
2097.0
 10
5980.0
 20
2098.0
  0
LWPOLYLINE
  5
40
330
17
100
AcDbEntity
  8
CONTOUR
100
AcDbPolyline
 90
4
 70
1
 10
5955.0
 20
2078.0
 10
5959.0
 20
2080.0
 10
5955.0
 20
2080.0
 10
5955.0
 20
2078.0
  0
LWPOLYLINE
  5
41
330
17
100
AcDbEntity
  8
CONTOUR
100
AcDbPolyline
 90
5
 70
1
 10
5809.0
 20
2034.0
 10
5805.0
 20
2037.0
 10
5803.0
 20
2037.0
 10
5803.0
 20
2033.0
 10
5809.0
 20
2034.0
  0
LWPOLYLINE
  5
42
330
17
100
AcDbEntity
  8
CONTOUR
100
AcDbPolyline
 90
4
 70
1
 10
5759.0
 20
2035.0
 10
5758.782608695652
 20
2033.2608695652175
 10
5761.0
 20
2034.0
 10
5759.0
 20
2035.0
  0
LWPOLYLINE
  5
43
330
17
100
AcDbEntity
  8
CONTOUR
100
AcDbPolyline
 90
1842
 70
1
 10
5744.0
 20
1950.0
 10
5738.0
 20
1949.0
 10
5737.0
 20
1946.0
 10
5731.0
 20
1946.0
 10
5732.0
 20
1943.0
 10
5738.0
 20
1942.0
 10
5737.0
 20
1934.0
 10
5732.0
 20
1934.0
 10
5729.0
 20
1931.0
 10
5727.0
 20
1931.0
 10
5725.0
 20
1927.0
 10
5717.0
 20
1928.0
 10
5716.0
 20
1926.0
 10
5709.0
 20
1926.0
 10
5704.0
 20
1929.0
 10
5704.0
 20
1932.0
 10
5696.0
 20
1932.0
 10
5695.0
 20
1936.0
 10
5693.0
 20
1936.0
 10
5692.0
 20
1933.0
 10
5685.0
 20
1933.0
 10
5685.0
 20
1927.0
 10
5683.0
 20
1926.0
 10
5683.0
 20
1924.0
 10
5685.0
 20
1924.0
 10
5686.0
 20
1931.0
 10
5692.0
 20
1931.0
 10
5693.0
 20
1926.0
 10
5695.0
 20
1926.0
 10
5696.0
 20
1928.0
 10
5704.0
 20
1928.0
 10
5705.0
 20
1925.0
 10
5708.0
 20
1923.0
 10
5707.0
 20
1915.0
 10
5709.0
 20
1915.0
 10
5710.0
 20
1918.0
 10
5717.0
 20
1918.0
 10
5718.0
 20
1921.0
 10
5727.0
 20
1921.0
 10
5728.0
 20
1923.0
 10
5739.0
 20
1922.0
 10
5743.0
 20
1914.0
 10
5752.0
 20
1914.0
 10
5753.0
 20
1907.0
 10
5758.0
 20
1907.0
 10
5759.0
 20
1902.0
 10
5766.0
 20
1902.0
 10
5767.0
 20
1897.0
 10
5769.0
 20
1897.0
 10
5770.0
 20
1899.0
 10
5778.0
 20
1898.0
 10
5777.0
 20
1887.0
 10
5769.0
 20
1886.0
 10
5769.0
 20
1879.0
 10
5767.0
 20
1878.0
 10
5767.0
 20
1876.0
 10
5769.0
 20
1876.0
 10
5770.0
 20
1878.0
 10
5777.0
 20
1878.0
 10
5779.0
 20
1881.0
 10
5786.0
 20
1881.0
 10
5787.0
 20
1885.0
 10
5795.0
 20
1886.0
 10
5791.0
 20
1890.0
 10
5787.0
 20
1891.0
 10
5783.0
 20
1898.0
 10
5783.0
 20
1908.0
 10
5792.0
 20
1909.0
 10
5793.0
 20
1904.0
 10
5796.0
 20
1900.0
 10
5799.0
 20
1900.0
 10
5807.0
 20
1892.0
 10
5809.0
 20
1888.0
 10
5809.0
 20
1881.0
 10
5801.0
 20
1880.0
 10
5800.0
 20
1876.0
 10
5793.0
 20
1877.0
 10
5795.0
 20
1872.0
 10
5802.0
 20
1870.0
 10
5803.0
 20
1861.0
 10
5800.0
 20
1855.0
 10
5795.0
 20
1854.0
 10
5795.0
 20
1848.0
 10
5791.0
 20
1847.0
 10
5791.0
 20
1842.0
 10
5787.0
 20
1841.0
 10
5787.0
 20
1836.0
 10
5780.0
 20
1835.0
 10
5779.0
 20
1840.0
 10
5775.0
 20
1841.0
 10
5774.0
 20
1834.0
 10
5762.0
 20
1833.0
 10
5761.0
 20
1840.0
 10
5765.0
 20
1843.0
 10
5773.0
 20
1843.0
 10
5774.0
 20
1851.0
 10
5776.0
 20
1851.0
 10
5777.0
 20
1853.0
 10
5787.0
 20
1853.0
 10
5788.0
 20
1857.0
 10
5784.0
 20
1865.0
 10
5784.0
 20
1866.0
 10
5776.0
 20
1860.0
 10
5776.0
 20
1854.0
 10
5773.0
 20
1850.0
 10
5756.0
 20
1852.0
 10
5754.0
 20
1865.0
 10
5756.0
 20
1866.0
 10
5756.0
 20
1872.0
 10
5759.0
 20
1873.0
 10
5759.0
 20
1876.0
 10
5753.0
 20
1879.0
 10
5752.0
 20
1891.0
 10
5749.0
 20
1894.0
 10
5744.0
 20
1895.0
 10
5743.0
 20
1899.0
 10
5741.0
 20
1899.0
 10
5740.0
 20
1891.0
 10
5728.0
 20
1890.0
 10
5726.0
 20
1887.0
 10
5715.0
 20
1888.0
 10
5714.0
 20
1886.0
 10
5708.0
 20
1886.0
 10
5706.0
 20
1889.0
 10
5700.0
 20
1891.0
 10
5701.0
 20
1902.0
 10
5693.0
 20
1902.0
 10
5692.0
 20
1908.0
 10
5686.0
 20
1909.0
 10
5683.0
 20
1892.0
 10
5686.0
 20
1891.0
 10
5687.0
 20
1894.0
 10
5693.0
 20
1894.0
 10
5695.0
 20
1892.0
 10
5695.0
 20
1884.0
 10
5702.0
 20
1877.0
 10
5703.0
 20
1867.0
 10
5710.0
 20
1867.0
 10
5710.0
 20
1875.0
 10
5718.0
 20
1876.0
 10
5727.0
 20
1867.0
 10
5727.0
 20
1859.0
 10
5738.0
 20
1859.0
 10
5739.0
 20
1863.0
 10
5736.0
 20
1865.0
 10
5736.0
 20
1872.0
 10
5727.0
 20
1871.0
 10
5719.0
 20
1878.0
 10
5719.0
 20
1884.0
 10
5722.0
 20
1886.0
 10
5734.0
 20
1885.0
 10
5735.0
 20
1882.0
 10
5741.0
 20
1882.0
 10
5742.0
 20
1873.0
 10
5746.0
 20
1872.0
 10
5752.0
 20
1867.0
 10
5751.0
 20
1855.0
 10
5748.0
 20
1852.0
 10
5754.0
 20
1851.0
 10
5754.0
 20
1842.0
 10
5751.0
 20
1841.0
 10
5750.0
 20
1837.0
 10
5742.0
 20
1838.0
 10
5741.0
 20
1835.0
 10
5735.0
 20
1835.0
 10
5729.0
 20
1837.0
 10
5728.0
 20
1850.0
 10
5726.0
 20
1852.0
 10
5726.0
 20
1856.0
 10
5716.0
 20
1857.0
 10
5715.0
 20
1861.0
 10
5711.0
 20
1863.0
 10
5711.0
 20
1857.0
 10
5707.0
 20
1854.0
 10
5695.0
 20
1855.0
 10
5694.0
 20
1859.0
 10
5690.0
 20
1863.0
 10
5690.0
 20
1872.0
 10
5687.0
 20
1873.0
 10
5684.0
 20
1870.0
 10
5678.0
 20
1870.0
 10
5673.0
 20
1875.0
 10
5666.0
 20
1877.0
 10
5666.0
 20
1883.0
 10
5661.0
 20
1879.0
 10
5654.0
 20
1879.0
 10
5654.0
 20
1876.0
 10
5658.0
 20
1874.0
 10
5662.0
 20
1876.0
 10
5668.0
 20
1876.0
 10
5670.0
 20
1865.0
 10
5673.0
 20
1865.0
 10
5674.0
 20
1868.0
 10
5683.0
 20
1867.0
 10
5683.0
 20
1861.0
 10
5677.0
 20
1860.0
 10
5679.0
 20
1856.0
 10
5685.0
 20
1852.0
 10
5685.0
 20
1846.0
 10
5682.0
 20
1843.0
 10
5681.416666666667
 20
1835.4166666666667
 10
5684.0
 20
1838.0
 10
5691.0
 20
1837.0
 10
5690.0
 20
1828.0
 10
5694.0
 20
1824.0
 10
5694.0
 20
1813.0
 10
5689.0
 20
1812.0
 10
5689.0
 20
1808.0
 10
5700.0
 20
1809.0
 10
5703.0
 20
1806.0
 10
5703.0
 20
1795.0
 10
5709.0
 20
1797.0
 10
5717.0
 20
1797.0
 10
5717.0
 20
1799.0
 10
5713.0
 20
1800.0
 10
5713.0
 20
1806.0
 10
5722.0
 20
1807.0
 10
5723.0
 20
1803.0
 10
5727.0
 20
1802.0
 10
5728.0
 20
1796.0
 10
5732.0
 20
1794.0
 10
5731.0
 20
1784.0
 10
5734.0
 20
1784.0
 10
5735.0
 20
1787.0
 10
5742.0
 20
1786.0
 10
5742.0
 20
1780.0
 10
5738.0
 20
1779.0
 10
5736.0
 20
1771.0
 10
5740.0
 20
1770.0
 10
5743.0
 20
1767.0
 10
5744.0
 20
1775.0
 10
5747.0
 20
1775.0
 10
5748.0
 20
1777.0
 10
5754.0
 20
1777.0
 10
5757.0
 20
1773.0
 10
5756.0
 20
1765.0
 10
5747.0
 20
1764.0
 10
5752.0
 20
1762.0
 10
5752.0
 20
1757.0
 10
5755.0
 20
1757.0
 10
5756.0
 20
1761.0
 10
5761.0
 20
1761.0
 10
5765.0
 20
1764.0
 10
5771.0
 20
1764.0
 10
5772.0
 20
1757.0
 10
5769.0
 20
1756.0
 10
5768.0
 20
1750.0
 10
5756.0
 20
1746.0
 10
5749.0
 20
1747.0
 10
5749.0
 20
1755.0
 10
5745.0
 20
1754.0
 10
5744.0
 20
1747.0
 10
5738.0
 20
1747.0
 10
5736.0
 20
1754.0
 10
5734.0
 20
1754.0
 10
5733.0
 20
1748.0
 10
5727.0
 20
1748.0
 10
5726.0
 20
1753.0
 10
5719.0
 20
1754.0
 10
5719.0
 20
1764.0
 10
5723.0
 20
1765.0
 10
5724.0
 20
1771.0
 10
5728.0
 20
1771.0
 10
5729.0
 20
1781.0
 10
5724.0
 20
1781.0
 10
5722.0
 20
1786.0
 10
5717.0
 20
1787.0
 10
5717.0
 20
1783.0
 10
5712.0
 20
1781.0
 10
5715.0
 20
1776.0
 10
5715.0
 20
1765.0
 10
5711.0
 20
1764.0
 10
5709.0
 20
1759.0
 10
5703.0
 20
1759.0
 10
5703.0
 20
1754.0
 10
5697.0
 20
1752.0
 10
5697.0
 20
1745.0
 10
5695.0
 20
1743.0
 10
5685.0
 20
1743.0
 10
5683.0
 20
1748.0
 10
5685.0
 20
1760.0
 10
5690.0
 20
1761.0
 10
5691.0
 20
1763.0
 10
5697.0
 20
1763.0
 10
5697.0
 20
1765.0
 10
5693.0
 20
1766.0
 10
5692.0
 20
1770.0
 10
5689.0
 20
1772.0
 10
5685.0
 20
1769.0
 10
5679.0
 20
1769.0
 10
5678.0
 20
1765.0
 10
5670.0
 20
1765.0
 10
5669.0
 20
1756.0
 10
5672.0
 20
1756.0
 10
5673.0
 20
1758.0
 10
5679.0
 20
1758.0
 10
5682.0
 20
1756.0
 10
5682.0
 20
1750.0
 10
5677.0
 20
1746.0
 10
5669.0
 20
1746.0
 10
5668.0
 20
1753.0
 10
5662.0
 20
1753.0
 10
5661.0
 20
1755.0
 10
5659.0
 20
1755.0
 10
5660.0
 20
1753.0
 10
5665.0
 20
1752.0
 10
5665.0
 20
1744.0
 10
5663.0
 20
1743.0
 10
5662.0
 20
1736.0
 10
5656.0
 20
1736.0
 10
5655.0
 20
1740.0
 10
5646.0
 20
1740.0
 10
5646.0
 20
1750.0
 10
5650.0
 20
1751.0
 10
5649.0
 20
1756.0
 10
5646.0
 20
1756.0
 10
5645.0
 20
1751.0
 10
5640.0
 20
1751.0
 10
5639.0
 20
1749.0
 10
5630.0
 20
1749.0
 10
5628.0
 20
1746.0
 10
5631.0
 20
1746.0
 10
5632.0
 20
1736.0
 10
5637.0
 20
1735.0
 10
5637.0
 20
1729.0
 10
5631.0
 20
1728.0
 10
5637.0
 20
1728.0
 10
5638.0
 20
1721.0
 10
5642.0
 20
1721.0
 10
5641.0
 20
1735.0
 10
5649.0
 20
1736.0
 10
5650.0
 20
1730.0
 10
5655.0
 20
1725.0
 10
5655.0
 20
1717.0
 10
5660.0
 20
1712.0
 10
5660.0
 20
1703.0
 10
5653.0
 20
1702.0
 10
5652.0
 20
1704.0
 10
5648.0
 20
1705.0
 10
5648.0
 20
1699.0
 10
5645.0
 20
1698.0
 10
5645.0
 20
1691.0
 10
5642.0
 20
1690.0
 10
5642.0
 20
1685.0
 10
5637.0
 20
1684.0
 10
5637.0
 20
1679.0
 10
5633.0
 20
1678.0
 10
5633.0
 20
1675.0
 10
5639.0
 20
1670.0
 10
5640.0
 20
1667.0
 10
5650.0
 20
1666.0
 10
5650.0
 20
1659.0
 10
5646.0
 20
1658.0
 10
5644.0
 20
1655.0
 10
5637.0
 20
1655.0
 10
5633.0
 20
1659.0
 10
5631.0
 20
1659.0
 10
5631.0
 20
1655.0
 10
5625.0
 20
1653.0
 10
5625.0
 20
1649.0
 10
5620.0
 20
1648.0
 10
5619.0
 20
1643.0
 10
5617.0
 20
1643.0
 10
5626.0
 20
1642.0
 10
5629.0
 20
1639.0
 10
5629.0
 20
1630.0
 10
5633.0
 20
1626.0
 10
5636.0
 20
1628.0
 10
5642.0
 20
1628.0
 10
5645.0
 20
1626.0
 10
5645.0
 20
1620.0
 10
5643.0
 20
1619.0
 10
5644.0
 20
1615.0
 10
5649.0
 20
1615.0
 10
5649.0
 20
1620.0
 10
5654.0
 20
1621.0
 10
5655.0
 20
1624.0
 10
5661.0
 20
1624.0
 10
5660.0
 20
1626.0
 10
5656.0
 20
1627.0
 10
5656.0
 20
1633.0
 10
5661.0
 20
1634.0
 10
5663.0
 20
1636.0
 10
5669.0
 20
1636.0
 10
5675.0
 20
1631.0
 10
5675.0
 20
1624.0
 10
5673.0
 20
1621.0
 10
5664.0
 20
1622.0
 10
5664.0
 20
1617.0
 10
5660.0
 20
1616.0
 10
5659.0
 20
1612.0
 10
5652.0
 20
1612.0
 10
5652.0
 20
1608.0
 10
5647.0
 20
1607.0
 10
5647.0
 20
1603.0
 10
5641.0
 20
1602.0
 10
5640.0
 20
1597.0
 10
5636.0
 20
1596.0
 10
5636.0
 20
1592.0
 10
5641.0
 20
1592.0
 10
5641.0
 20
1598.0
 10
5645.0
 20
1601.0
 10
5659.0
 20
1600.0
 10
5659.0
 20
1593.0
 10
5653.0
 20
1592.0
 10
5651.0
 20
1577.0
 10
5648.0
 20
1576.0
 10
5647.0
 20
1570.0
 10
5643.0
 20
1568.0
 10
5631.0
 20
1569.0
 10
5630.0
 20
1572.0
 10
5623.0
 20
1573.0
 10
5623.0
 20
1580.0
 10
5630.0
 20
1581.0
 10
5630.0
 20
1584.0
 10
5635.0
 20
1585.0
 10
5635.0
 20
1587.0
 10
5633.0
 20
1587.0
 10
5632.0
 20
1585.0
 10
5626.0
 20
1585.0
 10
5624.0
 20
1589.0
 10
5622.0
 20
1589.0
 10
5621.0
 20
1583.0
 10
5612.0
 20
1583.0
 10
5611.0
 20
1587.0
 10
5609.0
 20
1587.0
 10
5610.0
 20
1574.0
 10
5603.0
 20
1573.0
 10
5603.0
 20
1567.0
 10
5600.0
 20
1566.0
 10
5598.0
 20
1562.0
 10
5589.0
 20
1562.0
 10
5589.0
 20
1556.0
 10
5587.0
 20
1555.0
 10
5587.0
 20
1553.0
 10
5590.0
 20
1553.0
 10
5591.0
 20
1555.0
 10
5602.0
 20
1554.0
 10
5602.0
 20
1562.0
 10
5604.0
 20
1565.0
 10
5618.0
 20
1564.0
 10
5619.0
 20
1559.0
 10
5621.0
 20
1559.0
 10
5622.0
 20
1562.0
 10
5633.0
 20
1562.0
 10
5634.0
 20
1556.0
 10
5637.0
 20
1556.0
 10
5638.0
 20
1566.0
 10
5647.0
 20
1567.0
 10
5647.0
 20
1555.0
 10
5650.0
 20
1555.0
 10
5650.0
 20
1560.0
 10
5653.0
 20
1561.0
 10
5654.0
 20
1565.0
 10
5663.0
 20
1564.0
 10
5664.0
 20
1566.0
 10
5673.0
 20
1566.0
 10
5674.0
 20
1568.0
 10
5680.0
 20
1568.0
 10
5684.0
 20
1564.0
 10
5687.0
 20
1564.0
 10
5688.0
 20
1568.0
 10
5694.0
 20
1568.0
 10
5697.0
 20
1564.0
 10
5697.0
 20
1547.0
 10
5695.0
 20
1544.0
 10
5687.0
 20
1544.0
 10
5687.0
 20
1537.0
 10
5685.0
 20
1532.0
 10
5679.0
 20
1532.0
 10
5671.0
 20
1537.0
 10
5669.0
 20
1541.0
 10
5669.0
 20
1547.0
 10
5671.0
 20
1548.0
 10
5669.0
 20
1548.0
 10
5668.0
 20
1546.0
 10
5662.0
 20
1546.0
 10
5658.0
 20
1551.0
 10
5655.0
 20
1552.0
 10
5655.0
 20
1549.0
 10
5657.0
 20
1547.0
 10
5657.0
 20
1541.0
 10
5655.0
 20
1540.0
 10
5656.0
 20
1536.0
 10
5659.0
 20
1536.0
 10
5662.0
 20
1533.0
 10
5662.0
 20
1527.0
 10
5659.0
 20
1523.0
 10
5653.0
 20
1523.0
 10
5649.0
 20
1528.0
 10
5645.0
 20
1529.0
 10
5645.0
 20
1527.0
 10
5648.0
 20
1525.0
 10
5648.0
 20
1519.3333333333335
 10
5649.0
 20
1521.0
 10
5655.0
 20
1521.0
 10
5656.0
 20
1517.0
 10
5670.0
 20
1518.0
 10
5671.0
 20
1525.0
 10
5678.0
 20
1524.0
 10
5678.0
 20
1516.0
 10
5674.0
 20
1515.0
 10
5673.0
 20
1509.0
 10
5669.0
 20
1509.0
 10
5670.0
 20
1497.0
 10
5663.0
 20
1496.0
 10
5660.0
 20
1498.0
 10
5660.0
 20
1505.0
 10
5662.0
 20
1506.0
 10
5660.0
 20
1506.0
 10
5659.0
 20
1502.0
 10
5654.0
 20
1502.0
 10
5653.0
 20
1497.0
 10
5646.0
 20
1497.0
 10
5643.0
 20
1501.0
 10
5641.0
 20
1499.0
 10
5634.0
 20
1499.0
 10
5634.0
 20
1497.0
 10
5643.0
 20
1496.0
 10
5643.0
 20
1488.0
 10
5647.0
 20
1489.0
 10
5647.0
 20
1494.0
 10
5649.0
 20
1496.0
 10
5656.0
 20
1496.0
 10
5657.0
 20
1488.0
 10
5659.0
 20
1485.0
 10
5663.0
 20
1483.0
 10
5665.0
 20
1491.0
 10
5671.0
 20
1491.0
 10
5672.0
 20
1486.0
 10
5676.0
 20
1489.0
 10
5686.0
 20
1490.0
 10
5687.0
 20
1483.0
 10
5691.0
 20
1480.0
 10
5691.0
 20
1473.0
 10
5688.0
 20
1469.0
 10
5681.0
 20
1469.0
 10
5680.0
 20
1474.0
 10
5678.0
 20
1475.0
 10
5675.0
 20
1472.0
 10
5667.0
 20
1473.0
 10
5665.0
 20
1466.0
 10
5657.0
 20
1466.0
 10
5656.0
 20
1471.0
 10
5654.0
 20
1470.0
 10
5653.0
 20
1457.0
 10
5649.0
 20
1455.0
 10
5648.0
 20
1446.0
 10
5651.0
 20
1443.0
 10
5651.0
 20
1437.0
 10
5648.0
 20
1435.0
 10
5646.0
 20
1422.0
 10
5643.0
 20
1420.0
 10
5642.0
 20
1417.0
 10
5636.0
 20
1417.0
 10
5635.0
 20
1419.0
 10
5633.0
 20
1416.0
 10
5624.0
 20
1417.0
 10
5624.0
 20
1410.0
 10
5621.0
 20
1405.0
 10
5615.0
 20
1405.0
 10
5612.0
 20
1407.0
 10
5610.0
 20
1398.0
 10
5601.0
 20
1397.0
 10
5600.0
 20
1394.0
 10
5610.0
 20
1396.0
 10
5611.0
 20
1399.0
 10
5619.0
 20
1398.0
 10
5618.0
 20
1387.0
 10
5612.0
 20
1386.0
 10
5610.0
 20
1384.0
 10
5603.0
 20
1384.0
 10
5603.0
 20
1380.0
 10
5609.0
 20
1380.0
 10
5611.0
 20
1384.0
 10
5617.0
 20
1384.0
 10
5618.0
 20
1378.0
 10
5620.0
 20
1378.0
 10
5620.0
 20
1386.0
 10
5623.0
 20
1387.0
 10
5624.0
 20
1393.0
 10
5628.0
 20
1393.0
 10
5628.0
 20
1399.0
 10
5636.0
 20
1400.0
 10
5637.0
 20
1396.0
 10
5638.0
 20
1402.0
 10
5641.0
 20
1403.0
 10
5641.0
 20
1406.0
 10
5633.0
 20
1408.0
 10
5634.0
 20
1415.0
 10
5646.0
 20
1417.0
 10
5649.0
 20
1414.0
 10
5653.0
 20
1413.0
 10
5654.0
 20
1421.0
 10
5657.0
 20
1424.0
 10
5664.0
 20
1425.0
 10
5663.0
 20
1432.0
 10
5668.0
 20
1438.0
 10
5675.0
 20
1437.0
 10
5675.0
 20
1429.0
 10
5673.0
 20
1425.0
 10
5676.0
 20
1425.0
 10
5677.0
 20
1435.0
 10
5684.0
 20
1436.0
 10
5693.0
 20
1428.0
 10
5692.0
 20
1419.0
 10
5685.0
 20
1418.0
 10
5681.0
 20
1422.0
 10
5677.0
 20
1423.0
 10
5677.0
 20
1421.0
 10
5681.0
 20
1418.0
 10
5681.0
 20
1411.0
 10
5678.0
 20
1408.0
 10
5672.0
 20
1408.0
 10
5671.0
 20
1401.0
 10
5665.0
 20
1401.0
 10
5664.0
 20
1410.0
 10
5669.0
 20
1412.0
 10
5664.0
 20
1414.0
 10
5663.0
 20
1407.0
 10
5661.0
 20
1406.0
 10
5661.0
 20
1400.0
 10
5654.0
 20
1396.0
 10
5650.0
 20
1396.0
 10
5650.0
 20
1394.0
 10
5657.0
 20
1394.0
 10
5659.0
 20
1384.0
 10
5665.0
 20
1383.0
 10
5659.0
 20
1389.0
 10
5659.0
 20
1395.0
 10
5662.0
 20
1398.0
 10
5682.0
 20
1398.0
 10
5682.0
 20
1392.0
 10
5678.0
 20
1391.0
 10
5678.0
 20
1388.0
 10
5675.0
 20
1387.0
 10
5675.0
 20
1374.0
 10
5664.0
 20
1374.0
 10
5665.0
 20
1367.0
 10
5661.0
 20
1365.0
 10
5669.0
 20
1365.0
 10
5669.0
 20
1354.0
 10
5665.0
 20
1353.0
 10
5669.0
 20
1349.0
 10
5671.0
 20
1349.0
 10
5672.0
 20
1359.0
 10
5680.0
 20
1360.0
 10
5683.0
 20
1357.0
 10
5683.0
 20
1350.0
 10
5680.0
 20
1347.0
 10
5675.0
 20
1347.0
 10
5675.0
 20
1342.0
 10
5669.0
 20
1341.0
 10
5669.0
 20
1339.0
 10
5681.0
 20
1342.0
 10
5682.0
 20
1344.0
 10
5688.0
 20
1344.0
 10
5692.0
 20
1340.0
 10
5692.0
 20
1329.0
 10
5700.0
 20
1328.0
 10
5700.0
 20
1320.0
 10
5695.0
 20
1318.0
 10
5695.0
 20
1312.0
 10
5696.0
 20
1310.0
 10
5701.0
 20
1309.0
 10
5701.0
 20
1303.0
 10
5703.0
 20
1303.0
 10
5701.0
 20
1322.0
 10
5706.0
 20
1327.0
 10
5711.0
 20
1327.0
 10
5711.0
 20
1329.0
 10
5705.0
 20
1331.0
 10
5705.0
 20
1340.0
 10
5707.0
 20
1342.0
 10
5701.0
 20
1342.0
 10
5700.0
 20
1348.0
 10
5693.0
 20
1349.0
 10
5693.0
 20
1356.0
 10
5700.0
 20
1357.0
 10
5700.0
 20
1361.0
 10
5692.0
 20
1361.0
 10
5691.0
 20
1369.0
 10
5703.0
 20
1371.0
 10
5705.0
 20
1367.0
 10
5714.0
 20
1362.0
 10
5714.0
 20
1364.0
 10
5710.0
 20
1368.0
 10
5710.0
 20
1374.0
 10
5725.0
 20
1375.0
 10
5727.0
 20
1379.0
 10
5735.0
 20
1378.0
 10
5735.0
 20
1371.0
 10
5729.0
 20
1370.0
 10
5729.0
 20
1364.0
 10
5726.0
 20
1362.0
 10
5727.0
 20
1359.0
 10
5731.0
 20
1358.0
 10
5734.0
 20
1355.0
 10
5733.0
 20
1345.0
 10
5724.0
 20
1344.0
 10
5723.0
 20
1347.0
 10
5717.0
 20
1352.0
 10
5715.0
 20
1352.0
 10
5715.0
 20
1346.0
 10
5712.0
 20
1345.0
 10
5712.0
 20
1343.0
 10
5721.0
 20
1343.0
 10
5722.0
 20
1337.0
 10
5727.0
 20
1336.0
 10
5727.0
 20
1332.0
 10
5730.0
 20
1328.0
 10
5730.0
 20
1321.0
 10
5728.0
 20
1319.0
 10
5734.0
 20
1319.0
 10
5739.0
 20
1323.0
 10
5739.0
 20
1339.0
 10
5743.0
 20
1340.0
 10
5747.0
 20
1344.0
 10
5750.0
 20
1344.0
 10
5750.0
 20
1346.0
 10
5747.0
 20
1347.0
 10
5744.0
 20
1345.0
 10
5738.0
 20
1345.0
 10
5737.0
 20
1353.0
 10
5739.0
 20
1356.0
 10
5746.0
 20
1356.0
 10
5747.0
 20
1360.0
 10
5753.0
 20
1360.0
 10
5756.0
 20
1358.0
 10
5756.0
 20
1353.0
 10
5762.0
 20
1353.0
 10
5764.0
 20
1351.0
 10
5764.0
 20
1344.0
 10
5762.0
 20
1341.0
 10
5755.0
 20
1341.0
 10
5755.0
 20
1334.0
 10
5752.0
 20
1332.0
 10
5752.0
 20
1319.0
 10
5758.0
 20
1318.0
 10
5758.0
 20
1325.0
 10
5761.0
 20
1329.0
 10
5771.0
 20
1329.0
 10
5772.0
 20
1318.0
 10
5775.0
 20
1317.0
 10
5775.0
 20
1311.0
 10
5779.0
 20
1311.0
 10
5780.0
 20
1314.0
 10
5796.0
 20
1313.0
 10
5798.0
 20
1311.0
 10
5797.0
 20
1303.0
 10
5789.0
 20
1304.0
 10
5787.0
 20
1302.0
 10
5792.0
 20
1300.0
 10
5793.0
 20
1296.0
 10
5796.0
 20
1295.0
 10
5796.0
 20
1289.0
 10
5794.0
 20
1288.0
 10
5794.0
 20
1286.0
 10
5788.0
 20
1285.0
 10
5785.0
 20
1282.0
 10
5776.0
 20
1282.0
 10
5775.0
 20
1285.0
 10
5772.0
 20
1285.0
 10
5769.0
 20
1283.0
 10
5769.0
 20
1276.0
 10
5762.0
 20
1274.0
 10
5762.0
 20
1272.0
 10
5769.0
 20
1272.0
 10
5770.0
 20
1269.0
 10
5774.0
 20
1269.0
 10
5776.0
 20
1275.0
 10
5788.0
 20
1274.0
 10
5790.0
 20
1268.0
 10
5798.0
 20
1268.0
 10
5799.0
 20
1258.0
 10
5795.0
 20
1257.0
 10
5795.0
 20
1251.0
 10
5793.0
 20
1250.0
 10
5795.0
 20
1250.0
 10
5796.0
 20
1255.0
 10
5803.0
 20
1254.0
 10
5803.0
 20
1247.0
 10
5799.0
 20
1246.0
 10
5798.0
 20
1242.0
 10
5792.0
 20
1242.0
 10
5791.0
 20
1247.0
 10
5778.0
 20
1249.0
 10
5778.0
 20
1257.0
 10
5783.0
 20
1259.0
 10
5782.0
 20
1260.0
 10
5780.0
 20
1258.0
 10
5772.0
 20
1258.0
 10
5768.0
 20
1260.0
 10
5768.0
 20
1264.0
 10
5764.0
 20
1264.0
 10
5764.0
 20
1257.0
 10
5762.0
 20
1254.0
 10
5753.0
 20
1254.0
 10
5753.0
 20
1247.0
 10
5742.0
 20
1244.0
 10
5741.0
 20
1236.0
 10
5735.0
 20
1236.0
 10
5734.0
 20
1241.0
 10
5732.0
 20
1241.0
 10
5731.0
 20
1234.0
 10
5723.0
 20
1233.0
 10
5722.0
 20
1239.0
 10
5713.0
 20
1239.0
 10
5711.0
 20
1241.0
 10
5703.0
 20
1242.0
 10
5702.0
 20
1251.0
 10
5706.0
 20
1252.0
 10
5705.0
 20
1254.0
 10
5703.0
 20
1254.0
 10
5702.0
 20
1252.0
 10
5694.0
 20
1252.0
 10
5694.0
 20
1245.0
 10
5690.0
 20
1244.0
 10
5691.0
 20
1236.0
 10
5688.0
 20
1233.0
 10
5675.0
 20
1233.0
 10
5674.0
 20
1246.0
 10
5676.0
 20
1247.0
 10
5676.0
 20
1250.0
 10
5682.0
 20
1254.0
 10
5690.0
 20
1254.0
 10
5690.0
 20
1258.0
 10
5685.0
 20
1258.0
 10
5684.0
 20
1261.0
 10
5682.0
 20
1261.0
 10
5681.0
 20
1255.0
 10
5675.0
 20
1255.0
 10
5672.0
 20
1252.0
 10
5668.0
 20
1251.0
 10
5673.0
 20
1246.0
 10
5672.0
 20
1237.0
 10
5662.0
 20
1237.0
 10
5662.0
 20
1235.0
 10
5667.0
 20
1230.0
 10
5680.0
 20
1231.0
 10
5682.0
 20
1229.0
 10
5681.0
 20
1220.0
 10
5684.0
 20
1218.0
 10
5686.0
 20
1218.0
 10
5687.0
 20
1222.0
 10
5694.0
 20
1222.0
 10
5695.0
 20
1226.0
 10
5700.0
 20
1226.0
 10
5700.0
 20
1229.0
 10
5703.0
 20
1234.0
 10
5710.0
 20
1233.0
 10
5710.0
 20
1223.0
 10
5707.0
 20
1221.0
 10
5707.0
 20
1219.0
 10
5711.0
 20
1219.0
 10
5713.0
 20
1214.0
 10
5720.0
 20
1213.0
 10
5720.0
 20
1205.0
 10
5715.0
 20
1201.0
 10
5705.0
 20
1202.0
 10
5703.0
 20
1199.0
 10
5693.0
 20
1199.0
 10
5691.0
 20
1205.0
 10
5689.0
 20
1202.0
 10
5684.0
 20
1202.0
 10
5682.0
 20
1200.0
 10
5682.0
 20
1196.0
 10
5678.0
 20
1194.0
 10
5678.0
 20
1192.0
 10
5686.0
 20
1192.0
 10
5687.0
 20
1187.0
 10
5689.0
 20
1194.0
 10
5695.0
 20
1194.0
 10
5696.0
 20
1189.0
 10
5702.0
 20
1188.0
 10
5702.0
 20
1180.0
 10
5698.0
 20
1179.0
 10
5698.0
 20
1176.0
 10
5702.0
 20
1172.0
 10
5702.0
 20
1164.0
 10
5704.0
 20
1164.0
 10
5705.0
 20
1177.0
 10
5711.0
 20
1178.0
 10
5711.0
 20
1180.0
 10
5704.0
 20
1181.0
 10
5704.0
 20
1190.0
 10
5711.0
 20
1191.0
 10
5712.0
 20
1183.0
 10
5716.0
 20
1183.0
 10
5716.0
 20
1185.0
 10
5712.0
 20
1188.0
 10
5712.0
 20
1194.0
 10
5715.0
 20
1197.0
 10
5723.0
 20
1197.0
 10
5723.0
 20
1203.0
 10
5729.0
 20
1204.0
 10
5729.0
 20
1210.0
 10
5731.0
 20
1211.0
 10
5731.0
 20
1213.0
 10
5725.0
 20
1214.0
 10
5725.0
 20
1223.0
 10
5727.0
 20
1224.0
 10
5728.0
 20
1229.0
 10
5733.0
 20
1229.0
 10
5734.0
 20
1234.0
 10
5744.0
 20
1233.0
 10
5744.0
 20
1226.0
 10
5737.0
 20
1225.0
 10
5737.0
 20
1218.0
 10
5735.0
 20
1214.0
 10
5739.0
 20
1214.0
 10
5740.0
 20
1221.0
 10
5747.0
 20
1221.0
 10
5748.0
 20
1212.0
 10
5744.0
 20
1211.0
 10
5743.0
 20
1206.0
 10
5738.0
 20
1206.0
 10
5737.0
 20
1201.0
 10
5744.0
 20
1201.0
 10
5744.0
 20
1205.0
 10
5748.0
 20
1206.0
 10
5750.0
 20
1210.0
 10
5759.0
 20
1210.0
 10
5759.0
 20
1198.0
 10
5764.0
 20
1197.0
 10
5764.0
 20
1188.0
 10
5762.0
 20
1187.0
 10
5762.0
 20
1181.0
 10
5758.0
 20
1179.0
 10
5758.0
 20
1174.0
 10
5756.0
 20
1173.0
 10
5756.0
 20
1171.0
 10
5760.0
 20
1171.0
 10
5762.0
 20
1166.0
 10
5764.0
 20
1180.0
 10
5767.0
 20
1181.0
 10
5767.0
 20
1187.0
 10
5771.0
 20
1188.0
 10
5773.0
 20
1192.0
 10
5781.0
 20
1192.0
 10
5781.0
 20
1197.0
 10
5783.0
 20
1198.0
 10
5783.0
 20
1205.0
 10
5786.0
 20
1206.0
 10
5786.0
 20
1208.0
 10
5780.0
 20
1206.0
 10
5772.0
 20
1206.0
 10
5771.0
 20
1210.0
 10
5763.0
 20
1211.0
 10
5763.0
 20
1220.0
 10
5770.0
 20
1221.0
 10
5772.0
 20
1235.0
 10
5779.0
 20
1234.0
 10
5779.0
 20
1230.0
 10
5782.0
 20
1225.0
 10
5782.0
 20
1218.0
 10
5788.0
 20
1217.0
 10
5788.0
 20
1211.0
 10
5796.0
 20
1210.0
 10
5796.0
 20
1200.0
 10
5790.0
 20
1195.0
 10
5790.0
 20
1191.0
 10
5794.0
 20
1191.0
 10
5794.0
 20
1193.0
 10
5800.0
 20
1197.0
 10
5810.0
 20
1196.0
 10
5813.0
 20
1200.0
 10
5821.0
 20
1199.0
 10
5821.0
 20
1191.0
 10
5818.0
 20
1188.0
 10
5798.0
 20
1186.0
 10
5797.0
 20
1183.0
 10
5789.0
 20
1183.0
 10
5789.0
 20
1173.0
 10
5792.0
 20
1173.0
 10
5792.0
 20
1180.0
 10
5795.0
 20
1182.0
 10
5801.0
 20
1182.0
 10
5806.0
 20
1180.0
 10
5805.0
 20
1172.0
 10
5809.0
 20
1171.0
 10
5808.0
 20
1156.0
 10
5801.0
 20
1155.0
 10
5796.0
 20
1160.0
 10
5795.0
 20
1171.0
 10
5793.0
 20
1171.0
 10
5792.0
 20
1156.0
 10
5797.0
 20
1156.0
 10
5801.0
 20
1152.0
 10
5808.0
 20
1152.0
 10
5809.0
 20
1145.0
 10
5814.0
 20
1145.0
 10
5814.0
 20
1151.0
 10
5816.0
 20
1153.0
 10
5815.0
 20
1155.0
 10
5810.0
 20
1157.0
 10
5810.0
 20
1164.0
 10
5814.0
 20
1165.0
 10
5815.0
 20
1168.0
 10
5820.0
 20
1168.0
 10
5821.0
 20
1175.0
 10
5830.0
 20
1174.0
 10
5830.0
 20
1166.0
 10
5828.0
 20
1164.0
 10
5824.0
 20
1164.0
 10
5824.0
 20
1155.0
 10
5829.0
 20
1154.0
 10
5829.0
 20
1148.0
 10
5823.0
 20
1147.0
 10
5823.0
 20
1145.0
 10
5831.0
 20
1138.0
 10
5833.0
 20
1138.0
 10
5833.0
 20
1143.0
 10
5836.0
 20
1145.0
 10
5836.0
 20
1151.0
 10
5841.0
 20
1152.0
 10
5841.0
 20
1158.0
 10
5845.0
 20
1159.0
 10
5844.0
 20
1162.0
 10
5834.0
 20
1163.0
 10
5834.0
 20
1172.0
 10
5840.0
 20
1173.0
 10
5840.0
 20
1175.0
 10
5833.0
 20
1175.0
 10
5832.0
 20
1181.0
 10
5828.0
 20
1185.0
 10
5828.0
 20
1191.0
 10
5830.0
 20
1192.0
 10
5831.0
 20
1197.0
 10
5838.0
 20
1196.0
 10
5838.0
 20
1192.0
 10
5841.0
 20
1189.0
 10
5841.0
 20
1180.0
 10
5844.0
 20
1180.0
 10
5845.0
 20
1188.0
 10
5852.0
 20
1187.0
 10
5852.0
 20
1178.0
 10
5848.0
 20
1177.0
 10
5849.0
 20
1173.0
 10
5852.0
 20
1171.0
 10
5855.0
 20
1171.0
 10
5856.0
 20
1177.0
 10
5861.0
 20
1178.0
 10
5861.0
 20
1186.0
 10
5870.0
 20
1187.0
 10
5872.0
 20
1185.0
 10
5872.0
 20
1174.0
 10
5878.0
 20
1173.0
 10
5877.0
 20
1162.0
 10
5881.0
 20
1158.0
 10
5881.0
 20
1152.0
 10
5879.0
 20
1150.0
 10
5870.0
 20
1150.0
 10
5869.0
 20
1153.0
 10
5867.0
 20
1153.0
 10
5866.0
 20
1147.0
 10
5858.0
 20
1147.0
 10
5857.0
 20
1155.0
 10
5861.0
 20
1156.0
 10
5861.0
 20
1158.0
 10
5857.0
 20
1159.0
 10
5856.0
 20
1157.0
 10
5849.0
 20
1157.0
 10
5849.0
 20
1150.0
 10
5844.0
 20
1149.0
 10
5842.0
 20
1136.0
 10
5838.0
 20
1135.0
 10
5838.0
 20
1128.0
 10
5836.0
 20
1126.0
 10
5838.0
 20
1125.0
 10
5839.0
 20
1131.0
 10
5848.0
 20
1130.0
 10
5849.0
 20
1110.0
 10
5846.0
 20
1109.0
 10
5846.0
 20
1104.0
 10
5840.0
 20
1101.0
 10
5841.0
 20
1092.0
 10
5846.0
 20
1092.0
 10
5847.0
 20
1087.0
 10
5855.0
 20
1087.0
 10
5856.0
 20
1081.0
 10
5859.0
 20
1081.0
 10
5862.0
 20
1084.0
 10
5869.0
 20
1084.0
 10
5871.0
 20
1079.0
 10
5871.0
 20
1073.0
 10
5867.0
 20
1070.0
 10
5848.0
 20
1070.0
 10
5846.0
 20
1066.0
 10
5839.0
 20
1066.0
 10
5839.0
 20
1064.0
 10
5846.0
 20
1063.0
 10
5846.0
 20
1055.0
 10
5841.0
 20
1054.0
 10
5840.0
 20
1052.0
 10
5832.0
 20
1052.0
 10
5832.0
 20
1046.0
 10
5829.0
 20
1043.0
 10
5837.0
 20
1041.0
 10
5837.0
 20
1036.0
 10
5839.0
 20
1032.0
 10
5839.0
 20
1025.0
 10
5833.0
 20
1024.0
 10
5833.0
 20
1022.0
 10
5839.0
 20
1021.0
 10
5839.0
 20
1013.0
 10
5836.0
 20
1011.0
 10
5836.0
 20
1009.0
 10
5840.0
 20
1009.0
 10
5841.0
 20
1005.0
 10
5843.0
 20
1004.0
 10
5844.0
 20
1011.0
 10
5849.0
 20
1011.0
 10
5852.0
 20
1014.0
 10
5859.0
 20
1014.0
 10
5860.0
 20
1008.0
 10
5867.0
 20
1006.0
 10
5867.0
 20
1002.0
 10
5870.0
 20
1000.0
 10
5870.0
 20
994.0
 10
5867.0
 20
992.0
 10
5866.0
 20
984.0
 10
5868.0
 20
984.0
 10
5868.0
 20
990.0
 10
5873.0
 20
991.0
 10
5871.0
 20
995.0
 10
5872.0
 20
1013.0
 10
5865.0
 20
1014.0
 10
5864.0
 20
1018.0
 10
5862.0
 20
1018.0
 10
5861.0
 20
1016.0
 10
5850.0
 20
1017.0
 10
5849.0
 20
1021.0
 10
5843.0
 20
1021.0
 10
5842.0
 20
1038.0
 10
5849.0
 20
1039.0
 10
5850.0
 20
1043.0
 10
5855.0
 20
1043.0
 10
5855.0
 20
1048.0
 10
5860.0
 20
1049.0
 10
5861.0
 20
1053.0
 10
5869.0
 20
1052.0
 10
5870.0
 20
1059.0
 10
5877.0
 20
1059.0
 10
5878.0
 20
1050.0
 10
5884.0
 20
1049.0
 10
5884.0
 20
1043.0
 10
5877.0
 20
1042.0
 10
5876.0
 20
1049.0
 10
5874.0
 20
1049.0
 10
5874.0
 20
1042.0
 10
5871.0
 20
1041.0
 10
5871.0
 20
1039.0
 10
5875.0
 20
1036.0
 10
5875.0
 20
1030.0
 10
5873.0
 20
1029.0
 10
5874.0
 20
1025.0
 10
5882.0
 20
1024.0
 10
5883.0
 20
1021.0
 10
5885.0
 20
1021.0
 10
5886.0
 20
1029.0
 10
5899.0
 20
1030.0
 10
5904.0
 20
1035.0
 10
5891.0
 20
1034.0
 10
5890.0
 20
1037.0
 10
5885.0
 20
1041.0
 10
5886.0
 20
1048.0
 10
5888.0
 20
1048.0
 10
5889.0
 20
1050.0
 10
5898.0
 20
1050.0
 10
5898.0
 20
1053.0
 10
5891.0
 20
1055.0
 10
5891.0
 20
1063.0
 10
5893.0
 20
1066.0
 10
5904.0
 20
1066.0
 10
5905.0
 20
1062.0
 10
5909.0
 20
1061.0
 10
5909.0
 20
1067.0
 10
5914.0
 20
1068.0
 10
5914.0
 20
1077.0
 10
5909.0
 20
1078.0
 10
5908.0
 20
1083.0
 10
5896.0
 20
1083.0
 10
5896.0
 20
1089.0
 10
5899.0
 20
1094.0
 10
5908.0
 20
1094.0
 10
5909.0
 20
1086.0
 10
5913.0
 20
1086.0
 10
5913.0
 20
1098.0
 10
5909.0
 20
1101.0
 10
5909.0
 20
1103.0
 10
5905.0
 20
1104.0
 10
5902.0
 20
1101.0
 10
5894.0
 20
1102.0
 10
5893.0
 20
1110.0
 10
5895.0
 20
1115.0
 10
5901.0
 20
1115.0
 10
5902.0
 20
1113.0
 10
5906.0
 20
1113.0
 10
5912.0
 20
1116.0
 10
5913.0
 20
1118.0
 10
5925.0
 20
1118.0
 10
5929.0
 20
1110.0
 10
5928.0
 20
1101.0
 10
5935.0
 20
1100.0
 10
5935.0
 20
1091.0
 10
5932.0
 20
1088.0
 10
5925.0
 20
1088.0
 10
5925.0
 20
1082.0
 10
5921.0
 20
1081.0
 10
5921.0
 20
1079.0
 10
5926.0
 20
1078.0
 10
5926.0
 20
1070.0
 10
5921.0
 20
1066.0
 10
5917.0
 20
1066.0
 10
5916.0
 20
1059.0
 10
5911.0
 20
1059.0
 10
5911.0
 20
1044.0
 10
5906.0
 20
1043.0
 10
5906.0
 20
1036.0
 10
5912.0
 20
1036.0
 10
5917.0
 20
1034.0
 10
5918.0
 20
1038.0
 10
5928.0
 20
1038.0
 10
5929.0
 20
1029.0
 10
5926.0
 20
1028.0
 10
5924.0
 20
1025.0
 10
5919.0
 20
1025.0
 10
5918.0
 20
1022.0
 10
5921.0
 20
1022.0
 10
5923.0
 20
1024.0
 10
5933.0
 20
1024.0
 10
5934.0
 20
1018.0
 10
5940.0
 20
1017.0
 10
5940.0
 20
1011.0
 10
5937.0
 20
1010.0
 10
5937.0
 20
1004.0
 10
5930.0
 20
1002.0
 10
5930.0
 20
1000.0
 10
5932.0
 20
999.0
 10
5932.0
 20
993.0
 10
5934.0
 20
994.0
 10
5934.0
 20
998.0
 10
5938.0
 20
999.0
 10
5938.0
 20
1006.0
 10
5941.0
 20
1009.0
 10
5952.0
 20
1009.0
 10
5953.0
 20
1004.0
 10
5957.0
 20
1004.0
 10
5957.0
 20
1007.0
 10
5953.0
 20
1009.0
 10
5953.0
 20
1014.0
 10
5947.0
 20
1015.0
 10
5947.0
 20
1020.0
 10
5940.0
 20
1021.0
 10
5940.0
 20
1028.0
 10
5934.0
 20
1031.0
 10
5934.0
 20
1042.0
 10
5931.0
 20
1042.0
 10
5930.0
 20
1040.0
 10
5921.0
 20
1040.0
 10
5921.0
 20
1057.0
 10
5938.0
 20
1058.0
 10
5939.0
 20
1054.0
 10
5945.0
 20
1054.0
 10
5946.0
 20
1050.0
 10
5951.0
 20
1050.0
 10
5952.0
 20
1041.0
 10
5952.0
 20
1044.0
 10
5954.0
 20
1045.0
 10
5954.0
 20
1051.0
 10
5957.0
 20
1052.0
 10
5957.0
 20
1055.0
 10
5950.0
 20
1056.0
 10
5950.0
 20
1085.0
 10
5958.0
 20
1086.0
 10
5959.0
 20
1081.0
 10
5963.0
 20
1080.0
 10
5963.0
 20
1074.0
 10
5966.0
 20
1075.0
 10
5966.0
 20
1081.0
 10
5970.0
 20
1082.0
 10
5971.0
 20
1085.0
 10
5983.0
 20
1085.0
 10
5984.0
 20
1080.0
 10
5986.0
 20
1080.0
 10
5987.0
 20
1088.0
 10
5999.0
 20
1090.0
 10
5999.0
 20
1092.0
 10
5985.0
 20
1092.0
 10
5986.0
 20
1102.0
 10
5993.0
 20
1104.0
 10
5991.0
 20
1105.0
 10
5992.0
 20
1118.0
 10
6003.0
 20
1117.0
 10
6002.0
 20
1104.0
 10
6005.0
 20
1100.0
 10
6007.0
 20
1100.0
 10
6007.0
 20
1122.0
 10
5995.0
 20
1122.0
 10
5995.0
 20
1129.0
 10
5997.0
 20
1130.0
 10
5998.0
 20
1137.0
 10
6005.0
 20
1137.0
 10
6007.0
 20
1133.0
 10
6007.0
 20
1161.0
 10
6006.0
 20
1159.0
 10
5997.0
 20
1160.0
 10
5997.0
 20
1154.0
 10
5992.0
 20
1150.0
 10
5986.0
 20
1150.0
 10
5984.0
 20
1152.0
 10
5984.0
 20
1158.0
 10
5986.0
 20
1162.0
 10
5996.0
 20
1162.0
 10
5996.0
 20
1165.0
 10
5994.0
 20
1166.0
 10
5995.0
 20
1176.0
 10
6001.0
 20
1176.0
 10
6003.0
 20
1173.0
 10
6007.0
 20
1173.0
 10
6007.0
 20
1195.0
 10
6003.0
 20
1194.0
 10
6002.0
 20
1189.0
 10
5994.0
 20
1190.0
 10
5994.0
 20
1196.0
 10
5998.0
 20
1197.0
 10
5998.0
 20
1202.0
 10
6007.0
 20
1203.0
 10
6007.0
 20
1229.0
 10
6003.0
 20
1230.0
 10
6003.0
 20
1237.0
 10
6007.0
 20
1238.0
 10
6007.0
 20
1243.0
 10
6004.0
 20
1243.0
 10
6003.0
 20
1241.0
 10
5996.0
 20
1241.0
 10
5994.0
 20
1243.0
 10
5995.0
 20
1253.0
 10
6007.0
 20
1252.0
 10
6007.0
 20
1284.0
 10
5995.0
 20
1285.0
 10
5995.0
 20
1293.0
 10
6001.0
 20
1294.0
 10
6002.0
 20
1298.0
 10
6007.0
 20
1298.0
 10
6007.0
 20
1327.0
 10
6001.0
 20
1328.0
 10
6001.0
 20
1336.0
 10
6007.0
 20
1337.0
 10
6007.0
 20
1380.0
 10
5997.0
 20
1381.0
 10
5997.0
 20
1389.0
 10
6002.0
 20
1390.0
 10
6004.0
 20
1393.0
 10
6007.0
 20
1393.0
 10
6007.0
 20
1417.0
 10
6003.0
 20
1418.0
 10
6003.0
 20
1425.0
 10
6007.0
 20
1426.0
 10
6007.0
 20
1456.0
 10
6004.0
 20
1453.0
 10
5996.0
 20
1453.0
 10
5996.0
 20
1449.0
 10
5989.0
 20
1444.0
 10
5979.0
 20
1445.0
 10
5980.0
 20
1454.0
 10
5983.0
 20
1454.0
 10
5984.0
 20
1456.0
 10
5992.0
 20
1456.0
 10
5992.0
 20
1462.0
 10
5997.0
 20
1466.0
 10
6007.0
 20
1466.0
 10
6007.0
 20
1469.0
 10
6000.0
 20
1470.0
 10
6002.0
 20
1486.0
 10
6007.0
 20
1487.0
 10
6007.0
 20
1516.0
 10
6002.0
 20
1517.0
 10
6002.0
 20
1525.0
 10
6007.0
 20
1526.0
 10
6007.0
 20
1538.0
 10
6001.0
 20
1539.0
 10
6001.0
 20
1545.0
 10
6007.0
 20
1546.0
 10
6007.0
 20
1606.0
 10
6002.0
 20
1607.0
 10
6002.0
 20
1614.0
 10
6007.0
 20
1615.0
 10
6007.0
 20
1626.0
 10
6001.0
 20
1627.0
 10
6001.0
 20
1633.0
 10
6007.0
 20
1634.0
 10
6007.0
 20
1646.0
 10
6003.0
 20
1647.0
 10
6003.0
 20
1654.0
 10
6007.0
 20
1655.0
 10
6007.0
 20
1662.0
 10
6004.0
 20
1662.0
 10
6002.0
 20
1664.0
 10
6003.0
 20
1677.0
 10
6007.0
 20
1678.0
 10
6007.0
 20
1771.0
 10
6002.0
 20
1772.0
 10
6002.0
 20
1779.0
 10
6007.0
 20
1780.0
 10
6007.0
 20
1850.0
 10
6001.0
 20
1851.0
 10
6001.0
 20
1857.0
 10
6007.0
 20
1858.0
 10
6007.0
 20
1882.0
 10
6000.0
 20
1883.0
 10
6000.0
 20
1889.0
 10
6007.0
 20
1890.0
 10
6007.0
 20
1973.0
 10
6004.0
 20
1973.0
 10
6003.0
 20
1977.0
 10
5996.0
 20
1978.0
 10
5997.0
 20
1985.0
 10
6003.0
 20
1985.0
 10
6004.0
 20
1981.0
 10
6007.0
 20
1981.0
 10
6007.0
 20
1990.0
 10
6001.0
 20
1990.0
 10
6000.0
 20
1999.0
 10
5995.0
 20
1999.0
 10
5992.0
 20
2002.0
 10
5992.0
 20
2014.0
 10
5986.0
 20
2014.0
 10
5984.0
 20
2017.0
 10
5984.0
 20
2023.0
 10
5987.0
 20
2024.0
 10
5986.0
 20
2027.0
 10
5982.0
 20
2026.0
 10
5981.0
 20
2024.0
 10
5970.0
 20
2025.0
 10
5971.0
 20
2034.0
 10
5977.0
 20
2034.0
 10
5979.0
 20
2037.0
 10
5984.0
 20
2037.0
 10
5984.0
 20
2043.0
 10
5988.0
 20
2044.0
 10
5988.0
 20
2050.0
 10
5991.0
 20
2051.0
 10
5992.0
 20
2059.0
 10
5995.0
 20
2059.0
 10
5996.0
 20
2061.0
 10
6002.0
 20
2061.0
 10
6004.0
 20
2059.0
 10
6003.0
 20
2050.0
 10
6007.0
 20
2047.0
 10
6007.0
 20
2094.0
 10
6003.0
 20
2095.0
 10
6003.0
 20
2102.0
 10
6007.0
 20
2103.0
 10
6007.0
 20
2114.0
 10
6003.0
 20
2113.0
 10
6003.0
 20
2108.0
 10
5999.0
 20
2107.0
 10
5999.0
 20
2101.0
 10
5993.0
 20
2096.0
 10
5985.0
 20
2096.0
 10
5984.0
 20
2088.0
 10
5976.0
 20
2089.0
 10
5976.0
 20
2096.0
 10
5972.0
 20
2095.0
 10
5973.0
 20
2086.0
 10
5971.0
 20
2084.0
 10
5960.0
 20
2084.0
 10
5959.0
 20
2080.0
 10
5967.0
 20
2080.0
 10
5968.0
 20
2082.0
 10
5974.0
 20
2082.0
 10
5975.0
 20
2074.0
 10
5971.0
 20
2071.0
 10
5965.0
 20
2071.0
 10
5961.0
 20
2068.0
 10
5957.0
 20
2068.0
 10
5956.0
 20
2065.0
 10
5947.0
 20
2065.0
 10
5948.0
 20
2062.0
 10
5954.0
 20
2061.0
 10
5953.0
 20
2053.0
 10
5949.0
 20
2053.0
 10
5948.0
 20
2050.0
 10
5940.0
 20
2050.0
 10
5939.0
 20
2053.0
 10
5937.0
 20
2053.0
 10
5937.0
 20
2048.0
 10
5932.0
 20
2047.0
 10
5932.0
 20
2041.0
 10
5929.0
 20
2036.0
 10
5923.0
 20
2036.0
 10
5918.0
 20
2039.0
 10
5919.0
 20
2054.0
 10
5925.0
 20
2057.0
 10
5933.0
 20
2057.0
 10
5933.0
 20
2059.0
 10
5926.0
 20
2063.0
 10
5926.0
 20
2069.0
 10
5929.0
 20
2070.0
 10
5930.0
 20
2073.0
 10
5942.0
 20
2073.0
 10
5943.0
 20
2068.0
 10
5945.0
 20
2068.0
 10
5945.0
 20
2074.0
 10
5948.0
 20
2075.0
 10
5948.0
 20
2077.0
 10
5943.0
 20
2080.0
 10
5944.0
 20
2095.0
 10
5948.0
 20
2098.0
 10
5958.0
 20
2098.0
 10
5959.0
 20
2094.0
 10
5962.0
 20
2093.0
 10
5962.0
 20
2099.0
 10
5967.0
 20
2100.0
 10
5967.0
 20
2107.0
 10
5972.0
 20
2108.0
 10
5974.0
 20
2111.0
 10
5982.0
 20
2111.0
 10
5983.0
 20
2106.0
 10
5983.0
 20
2112.0
 10
5990.0
 20
2113.0
 10
5990.0
 20
2120.0
 10
5993.0
 20
2121.0
 10
5993.0
 20
2128.0
 10
5996.0
 20
2129.0
 10
5997.0
 20
2132.0
 10
6007.0
 20
2132.0
 10
6007.0
 20
2141.0
 10
6001.0
 20
2141.0
 10
5999.0
 20
2147.0
 10
5997.0
 20
2141.0
 10
5985.0
 20
2142.0
 10
5985.0
 20
2154.0
 10
5987.0
 20
2155.0
 10
5987.0
 20
2157.0
 10
5981.0
 20
2159.0
 10
5981.0
 20
2171.0
 10
5978.0
 20
2172.0
 10
5978.0
 20
2175.0
 10
5972.0
 20
2176.0
 10
5971.0
 20
2180.0
 10
5966.0
 20
2180.0
 10
5965.0
 20
2185.0
 10
5960.0
 20
2188.0
 10
5960.0
 20
2204.0
 10
5963.0
 20
2206.0
 10
5959.0
 20
2207.0
 10
5957.0
 20
2212.0
 10
5956.0
 20
2205.0
 10
5953.0
 20
2204.0
 10
5951.0
 20
2201.0
 10
5944.0
 20
2201.0
 10
5943.0
 20
2194.0
 10
5954.0
 20
2194.0
 10
5955.0
 20
2190.0
 10
5959.0
 20
2188.0
 10
5958.0
 20
2171.0
 10
5955.0
 20
2168.0
 10
5942.0
 20
2168.0
 10
5941.0
 20
2175.0
 10
5945.0
 20
2176.0
 10
5946.0
 20
2180.0
 10
5941.0
 20
2182.0
 10
5939.0
 20
2178.0
 10
5933.0
 20
2178.0
 10
5933.0
 20
2175.0
 10
5941.0
 20
2174.0
 10
5941.0
 20
2166.0
 10
5933.0
 20
2165.0
 10
5932.0
 20
2170.0
 10
5930.0
 20
2170.0
 10
5930.0
 20
2163.0
 10
5923.0
 20
2162.0
 10
5922.0
 20
2167.0
 10
5916.0
 20
2169.0
 10
5916.0
 20
2176.0
 10
5919.0
 20
2178.0
 10
5918.0
 20
2181.0
 10
5913.0
 20
2184.0
 10
5904.0
 20
2183.0
 10
5901.0
 20
2185.0
 10
5896.0
 20
2185.0
 10
5894.0
 20
2189.0
 10
5894.0
 20
2181.0
 10
5891.0
 20
2179.0
 10
5891.0
 20
2176.0
 10
5887.0
 20
2174.0
 10
5887.0
 20
2167.0
 10
5879.0
 20
2166.0
 10
5878.0
 20
2176.0
 10
5881.0
 20
2177.0
 10
5881.0
 20
2179.0
 10
5879.0
 20
2180.0
 10
5880.0
 20
2190.0
 10
5878.0
 20
2190.0
 10
5877.0
 20
2183.0
 10
5870.0
 20
2183.0
 10
5868.0
 20
2189.0
 10
5870.0
 20
2202.0
 10
5864.0
 20
2202.0
 10
5863.0
 20
2197.0
 10
5857.0
 20
2196.0
 10
5857.0
 20
2190.0
 10
5852.0
 20
2189.0
 10
5851.0
 20
2186.0
 10
5844.0
 20
2187.0
 10
5843.0
 20
2181.0
 10
5839.0
 20
2180.0
 10
5838.0
 20
2176.0
 10
5832.0
 20
2176.0
 10
5829.0
 20
2180.0
 10
5825.0
 20
2182.0
 10
5823.0
 20
2178.0
 10
5817.0
 20
2178.0
 10
5811.0
 20
2181.0
 10
5810.0
 20
2174.0
 10
5806.0
 20
2171.0
 10
5798.0
 20
2171.0
 10
5798.0
 20
2169.0
 10
5800.0
 20
2168.0
 10
5806.0
 20
2168.0
 10
5807.0
 20
2162.0
 10
5811.0
 20
2162.0
 10
5811.0
 20
2166.0
 10
5815.0
 20
2167.0
 10
5816.0
 20
2175.0
 10
5824.0
 20
2174.0
 10
5824.0
 20
2166.0
 10
5819.0
 20
2165.0
 10
5819.0
 20
2158.0
 10
5816.0
 20
2157.0
 10
5818.0
 20
2154.0
 10
5817.0
 20
2140.0
 10
5814.0
 20
2139.0
 10
5814.0
 20
2134.0
 10
5811.0
 20
2132.0
 10
5810.0
 20
2129.0
 10
5801.0
 20
2129.0
 10
5800.0
 20
2115.0
 10
5796.0
 20
2113.0
 10
5796.0
 20
2107.0
 10
5802.0
 20
2107.0
 10
5805.0
 20
2102.0
 10
5815.0
 20
2101.0
 10
5815.0
 20
2092.0
 10
5812.0
 20
2090.0
 10
5813.0
 20
2088.0
 10
5816.0
 20
2088.0
 10
5816.0
 20
2094.0
 10
5819.0
 20
2098.0
 10
5826.0
 20
2097.0
 10
5826.0
 20
2091.0
 10
5824.0
 20
2090.0
 10
5824.0
 20
2082.0
 10
5814.0
 20
2077.0
 10
5819.0
 20
2072.0
 10
5819.0
 20
2054.0
 10
5825.0
 20
2060.0
 10
5832.0
 20
2060.0
 10
5833.0
 20
2048.0
 10
5829.0
 20
2047.0
 10
5827.0
 20
2044.0
 10
5818.0
 20
2044.0
 10
5823.0
 20
2041.0
 10
5824.0
 20
2029.0
 10
5826.0
 20
2028.0
 10
5827.0
 20
2041.0
 10
5834.0
 20
2041.0
 10
5841.0
 20
2035.0
 10
5840.0
 20
2023.0
 10
5836.0
 20
2022.0
 10
5834.0
 20
2019.0
 10
5826.0
 20
2019.0
 10
5825.0
 20
2016.0
 10
5818.0
 20
2016.0
 10
5815.0
 20
2019.0
 10
5813.0
 20
2019.0
 10
5813.0
 20
2015.0
 10
5810.0
 20
2013.0
 10
5816.0
 20
2011.0
 10
5816.0
 20
2002.0
 10
5811.0
 20
2001.0
 10
5810.0
 20
1997.0
 10
5799.0
 20
1998.0
 10
5799.0
 20
2008.0
 10
5802.0
 20
2009.0
 10
5802.0
 20
2016.0
 10
5804.0
 20
2017.0
 10
5804.0
 20
2019.0
 10
5800.0
 20
2022.0
 10
5800.0
 20
2028.0
 10
5802.0
 20
2029.0
 10
5803.0
 20
2033.0
 10
5799.0
 20
2032.0
 10
5798.0
 20
2029.0
 10
5787.0
 20
2030.0
 10
5787.0
 20
2025.0
 10
5782.0
 20
2023.0
 10
5789.0
 20
2016.0
 10
5789.0
 20
2010.0
 10
5786.0
 20
2006.0
 10
5779.0
 20
2006.0
 10
5778.0
 20
2010.0
 10
5776.0
 20
2010.0
 10
5776.0
 20
2005.0
 10
5771.0
 20
2003.0
 10
5771.0
 20
2001.0
 10
5775.0
 20
1998.0
 10
5774.0
 20
1989.0
 10
5767.0
 20
1988.0
 10
5766.0
 20
1981.0
 10
5764.0
 20
1981.0
 10
5762.0
 20
1978.0
 10
5755.0
 20
1978.0
 10
5753.0
 20
1975.0
 10
5747.0
 20
1975.0
 10
5742.0
 20
1979.0
 10
5737.0
 20
1979.0
 10
5736.0
 20
1986.0
 10
5741.0
 20
1987.0
 10
5742.0
 20
1994.0
 10
5749.0
 20
1994.0
 10
5750.0
 20
1990.0
 10
5752.0
 20
1990.0
 10
5753.0
 20
1992.0
 10
5763.0
 20
1991.0
 10
5763.0
 20
1994.0
 10
5759.0
 20
1994.0
 10
5756.0
 20
1997.0
 10
5757.0
 20
2019.0
 10
5762.0
 20
2020.0
 10
5763.0
 20
2022.0
 10
5772.0
 20
2021.0
 10
5774.0
 20
2032.0
 10
5772.0
 20
2031.0
 10
5771.0
 20
2026.0
 10
5767.0
 20
2024.0
 10
5759.0
 20
2024.0
 10
5758.35294117647
 20
2029.8235294117646
 10
5758.0
 20
2027.0
 10
5756.0
 20
2026.0
 10
5756.0
 20
2020.0
 10
5752.0
 20
2019.0
 10
5752.0
 20
2012.0
 10
5749.0
 20
2009.0
 10
5735.0
 20
2010.0
 10
5734.0
 20
2020.0
 10
5740.0
 20
2021.0
 10
5741.0
 20
2024.0
 10
5744.0
 20
2024.0
 10
5743.0
 20
2033.0
 10
5745.0
 20
2034.0
 10
5745.0
 20
2036.0
 10
5741.0
 20
2037.0
 10
5741.0
 20
2031.0
 10
5738.0
 20
2030.0
 10
5738.0
 20
2025.0
 10
5733.0
 20
2024.0
 10
5731.0
 20
2020.0
 10
5727.0
 20
2019.0
 10
5727.0
 20
2017.0
 10
5731.0
 20
2016.0
 10
5731.0
 20
2009.0
 10
5727.0
 20
2008.0
 10
5726.0
 20
2006.0
 10
5720.0
 20
2006.0
 10
5716.0
 20
2009.0
 10
5719.0
 20
2002.0
 10
5719.0
 20
1994.0
 10
5709.0
 20
1994.0
 10
5709.0
 20
1989.0
 10
5702.0
 20
1987.0
 10
5696.0
 20
1987.0
 10
5693.0
 20
1990.0
 10
5694.0
 20
1998.0
 10
5688.0
 20
2003.0
 10
5689.0
 20
2015.0
 10
5695.0
 20
2017.0
 10
5689.0
 20
2022.0
 10
5689.0
 20
2025.0
 10
5683.0
 20
2023.0
 10
5686.0
 20
2020.0
 10
5687.0
 20
2005.0
 10
5683.0
 20
2002.0
 10
5684.0
 20
1992.0
 10
5690.0
 20
1991.0
 10
5690.0
 20
1983.0
 10
5687.0
 20
1981.0
 10
5686.0
 20
1977.0
 10
5680.0
 20
1977.0
 10
5680.0
 20
1973.0
 10
5677.0
 20
1971.0
 10
5677.0
 20
1967.0
 10
5680.0
 20
1969.0
 10
5687.0
 20
1969.0
 10
5698.0
 20
1962.0
 10
5698.0
 20
1973.0
 10
5707.0
 20
1974.0
 10
5707.0
 20
1959.0
 10
5704.0
 20
1958.0
 10
5704.0
 20
1952.0
 10
5701.0
 20
1951.0
 10
5701.0
 20
1948.0
 10
5705.0
 20
1946.0
 10
5707.0
 20
1951.0
 10
5713.0
 20
1951.0
 10
5714.0
 20
1955.0
 10
5718.0
 20
1955.0
 10
5719.0
 20
1961.0
 10
5725.0
 20
1961.0
 10
5725.0
 20
1965.0
 10
5716.0
 20
1965.0
 10
5715.0
 20
1973.0
 10
5722.0
 20
1975.0
 10
5717.0
 20
1978.0
 10
5715.0
 20
1978.0
 10
5714.0
 20
1975.0
 10
5708.0
 20
1975.0
 10
5706.0
 20
1977.0
 10
5706.0
 20
1983.0
 10
5709.0
 20
1984.0
 10
5709.0
 20
1988.0
 10
5714.0
 20
1989.0
 10
5715.0
 20
1992.0
 10
5721.0
 20
1992.0
 10
5722.0
 20
1990.0
 10
5726.0
 20
1989.0
 10
5727.0
 20
1997.0
 10
5735.0
 20
1996.0
 10
5735.0
 20
1988.0
 10
5731.0
 20
1987.0
 10
5734.0
 20
1981.0
 10
5734.0
 20
1975.0
 10
5729.0
 20
1972.0
 10
5726.0
 20
1972.0
 10
5726.0
 20
1968.0
 10
5745.0
 20
1967.0
 10
5744.059322033899
 20
1951.008474576271
 10
5744.0
 20
1951.0
 10
5744.0
 20
1950.0
  0
LWPOLYLINE
  5
44
330
17
100
AcDbEntity
  8
CONTOUR
100
AcDbPolyline
 90
4
 70
1
 10
5784.0
 20
1871.0
 10
5786.0
 20
1872.0
 10
5784.0
 20
1872.0
 10
5784.0
 20
1871.0
  0
LWPOLYLINE
  5
45
330
17
100
AcDbEntity
  8
CONTOUR
100
AcDbPolyline
 90
150
 70
1
 10
5767.0
 20
1103.0
 10
5768.0
 20
1096.0
 10
5766.0
 20
1095.0
 10
5766.0
 20
1093.0
 10
5772.0
 20
1092.0
 10
5773.0
 20
1088.0
 10
5776.0
 20
1088.0
 10
5776.0
 20
1094.0
 10
5778.0
 20
1095.0
 10
5779.0
 20
1103.0
 10
5785.0
 20
1103.0
 10
5788.0
 20
1094.0
 10
5786.0
 20
1081.0
 10
5783.0
 20
1077.0
 10
5776.0
 20
1077.0
 10
5775.0
 20
1070.0
 10
5766.0
 20
1071.0
 10
5766.0
 20
1080.0
 10
5760.0
 20
1080.0
 10
5759.0
 20
1069.0
 10
5749.0
 20
1070.0
 10
5750.0
 20
1067.0
 10
5755.0
 20
1066.0
 10
5755.0
 20
1060.0
 10
5751.0
 20
1059.0
 10
5748.0
 20
1056.0
 10
5743.0
 20
1056.0
 10
5743.0
 20
1053.0
 10
5750.0
 20
1053.0
 10
5751.0
 20
1046.0
 10
5754.0
 20
1046.0
 10
5754.0
 20
1048.0
 10
5752.0
 20
1049.0
 10
5753.0
 20
1057.0
 10
5761.0
 20
1057.0
 10
5765.0
 20
1055.0
 10
5765.0
 20
1058.0
 10
5772.0
 20
1059.0
 10
5773.0
 20
1063.0
 10
5781.0
 20
1063.0
 10
5781.0
 20
1069.0
 10
5784.0
 20
1070.0
 10
5784.0
 20
1076.0
 10
5788.0
 20
1077.0
 10
5789.0
 20
1089.0
 10
5795.0
 20
1089.0
 10
5799.0
 20
1086.0
 10
5800.0
 20
1083.0
 10
5805.0
 20
1083.0
 10
5805.0
 20
1088.0
 10
5800.0
 20
1088.0
 10
5794.0
 20
1091.0
 10
5793.0
 20
1100.0
 10
5796.0
 20
1103.0
 10
5806.0
 20
1102.0
 10
5808.0
 20
1105.0
 10
5817.0
 20
1105.0
 10
5821.0
 20
1108.0
 10
5821.0
 20
1111.0
 10
5818.0
 20
1113.0
 10
5815.0
 20
1107.0
 10
5807.0
 20
1107.0
 10
5806.0
 20
1112.0
 10
5804.0
 20
1112.0
 10
5801.0
 20
1110.0
 10
5796.0
 20
1110.0
 10
5794.0
 20
1107.0
 10
5778.0
 20
1105.0
 10
5777.0
 20
1102.0
 10
5769.0
 20
1102.0
 10
5767.0
 20
1104.0
 10
5767.0
 20
1112.0
 10
5770.0
 20
1113.0
 10
5770.0
 20
1116.0
 10
5772.0
 20
1118.0
 10
5781.0
 20
1119.0
 10
5782.0
 20
1122.0
 10
5774.0
 20
1123.0
 10
5773.0
 20
1130.0
 10
5771.0
 20
1130.0
 10
5771.0
 20
1124.0
 10
5768.0
 20
1122.0
 10
5766.0
 20
1109.0
 10
5758.0
 20
1109.0
 10
5758.0
 20
1117.0
 10
5760.0
 20
1118.0
 10
5761.0
 20
1139.0
 10
5768.0
 20
1140.0
 10
5771.0
 20
1138.0
 10
5772.0
 20
1143.0
 10
5775.0
 20
1144.0
 10
5777.0
 20
1149.0
 10
5783.0
 20
1149.0
 10
5785.0
 20
1153.0
 10
5790.0
 20
1153.0
 10
5790.0
 20
1155.0
 10
5783.0
 20
1155.0
 10
5782.0
 20
1160.0
 10
5780.0
 20
1162.0
 10
5779.0
 20
1158.0
 10
5774.0
 20
1157.0
 10
5773.0
 20
1153.0
 10
5767.0
 20
1153.0
 10
5765.0
 20
1155.0
 10
5765.0
 20
1153.0
 10
5771.0
 20
1152.0
 10
5771.0
 20
1145.0
 10
5767.0
 20
1144.0
 10
5765.0
 20
1141.0
 10
5759.0
 20
1141.0
 10
5759.0
 20
1134.0
 10
5756.0
 20
1132.0
 10
5755.0
 20
1129.0
 10
5746.0
 20
1129.0
 10
5744.0
 20
1133.0
 10
5744.0
 20
1139.0
 10
5747.0
 20
1140.0
 10
5749.0
 20
1143.0
 10
5755.0
 20
1145.0
 10
5748.0
 20
1147.0
 10
5747.0
 20
1160.0
 10
5746.0
 20
1162.0
 10
5742.0
 20
1163.0
 10
5742.0
 20
1160.0
 10
5747.0
 20
1157.0
 10
5747.0
 20
1151.0
 10
5745.0
 20
1150.0
 10
5744.0
 20
1146.0
 10
5738.0
 20
1146.0
 10
5737.0
 20
1148.0
 10
5735.0
 20
1148.0
 10
5736.0
 20
1146.0
 10
5742.0
 20
1145.0
 10
5742.0
 20
1137.0
 10
5738.0
 20
1133.0
 10
5732.0
 20
1133.0
 10
5731.0
 20
1127.0
 10
5727.0
 20
1126.0
 10
5727.0
 20
1123.0
 10
5732.0
 20
1122.0
 10
5732.0
 20
1130.0
 10
5734.0
 20
1132.0
 10
5740.0
 20
1132.0
 10
5743.0
 20
1130.0
 10
5740.7692307692305
 20
1114.3846153846155
 10
5744.0
 20
1116.0
 10
5754.0
 20
1115.0
 10
5753.0
 20
1104.0
 10
5763.0
 20
1105.0
 10
5767.0
 20
1103.0
  0
LWPOLYLINE
  5
46
330
17
100
AcDbEntity
  8
CONTOUR
100
AcDbPolyline
 90
5
 70
1
 10
5960.0
 20
1067.0
 10
5963.0
 20
1067.0
 10
5963.0
 20
1071.0
 10
5959.0
 20
1069.0
 10
5960.0
 20
1067.0
  0
LWPOLYLINE
  5
47
330
17
100
AcDbEntity
  8
CONTOUR
100
AcDbPolyline
 90
7
 70
1
 10
5934.0
 20
1042.0
 10
5942.0
 20
1043.0
 10
5942.0
 20
1046.0
 10
5938.0
 20
1046.0
 10
5937.0
 20
1050.0
 10
5935.0
 20
1050.0
 10
5934.0
 20
1042.0
  0
LWPOLYLINE
  5
48
330
17
100
AcDbEntity
  8
CONTOUR
100
AcDbPolyline
 90
9
 70
1
 10
5950.0
 20
1029.0
 10
5950.0
 20
1035.0
 10
5952.0
 20
1036.0
 10
5952.0
 20
1041.0
 10
5949.0
 20
1039.0
 10
5949.0
 20
1035.0
 10
5946.0
 20
1033.0
 10
5946.0
 20
1030.0
 10
5950.0
 20
1029.0
  0
LWPOLYLINE
  5
49
330
17
100
AcDbEntity
  8
CONTOUR
100
AcDbPolyline
 90
5
 70
1
 10
5950.0
 20
1025.0
 10
5955.0
 20
1025.0
 10
5954.0
 20
1028.0
 10
5950.0
 20
1029.0
 10
5950.0
 20
1025.0
  0
LWPOLYLINE
  5
4A
330
17
100
AcDbEntity
  8
CONTOUR
100
AcDbPolyline
 90
4
 70
1
 10
5877.0
 20
957.0
 10
5876.0
 20
966.0
 10
5875.0
 20
957.0
 10
5877.0
 20
957.0
  0
LWPOLYLINE
  5
4B
330
17
100
AcDbEntity
  8
CONTOUR
100
AcDbPolyline
 90
237
 70
1
 10
5891.0
 20
954.0
 10
5881.0
 20
954.0
 10
5881.0
 20
950.0
 10
5877.0
 20
948.0
 10
5877.0
 20
946.0
 10
5881.0
 20
946.0
 10
5883.0
 20
948.0
 10
5890.0
 20
948.0
 10
5892.0
 20
943.0
 10
5896.0
 20
943.0
 10
5897.0
 20
945.0
 10
5904.0
 20
945.0
 10
5906.0
 20
943.0
 10
5906.0
 20
936.0
 10
5904.0
 20
932.0
 10
5896.0
 20
933.0
 10
5894.0
 20
930.0
 10
5887.0
 20
930.0
 10
5887.0
 20
924.0
 10
5882.0
 20
921.0
 10
5891.0
 20
914.0
 10
5895.0
 20
914.0
 10
5896.0
 20
923.0
 10
5911.0
 20
923.0
 10
5911.0
 20
916.0
 10
5906.0
 20
912.0
 10
5898.0
 20
912.0
 10
5898.0
 20
909.0
 10
5901.0
 20
906.0
 10
5901.0
 20
898.0
 10
5903.0
 20
905.0
 10
5911.0
 20
904.0
 10
5911.0
 20
895.0
 10
5908.0
 20
894.0
 10
5908.0
 20
892.0
 10
5913.0
 20
887.0
 10
5912.0
 20
876.0
 10
5907.0
 20
874.0
 10
5907.0
 20
867.0
 10
5905.0
 20
864.0
 10
5898.0
 20
865.0
 10
5896.0
 20
864.0
 10
5896.0
 20
862.0
 10
5903.0
 20
862.0
 10
5904.0
 20
858.0
 10
5908.0
 20
857.0
 10
5908.0
 20
853.0
 10
5910.0
 20
853.0
 10
5911.0
 20
860.0
 10
5919.0
 20
859.0
 10
5919.0
 20
854.0
 10
5923.0
 20
857.0
 10
5929.0
 20
857.0
 10
5929.0
 20
860.0
 10
5920.0
 20
861.0
 10
5921.0
 20
869.0
 10
5926.0
 20
869.0
 10
5927.0
 20
873.0
 10
5938.0
 20
873.0
 10
5939.0
 20
867.0
 10
5943.0
 20
867.0
 10
5943.0
 20
873.0
 10
5946.0
 20
875.0
 10
5946.0
 20
881.0
 10
5949.0
 20
882.0
 10
5950.0
 20
886.0
 10
5956.0
 20
886.0
 10
5956.0
 20
888.0
 10
5951.0
 20
889.0
 10
5951.0
 20
895.0
 10
5958.0
 20
896.0
 10
5959.0
 20
892.0
 10
5966.0
 20
891.0
 10
5966.0
 20
883.0
 10
5961.0
 20
882.0
 10
5961.0
 20
880.0
 10
5974.0
 20
869.0
 10
5974.0
 20
858.0
 10
5969.0
 20
856.0
 10
5969.0
 20
850.0
 10
5967.0
 20
846.0
 10
5970.0
 20
844.0
 10
5970.0
 20
841.0
 10
5976.0
 20
840.0
 10
5977.0
 20
845.0
 10
5983.0
 20
845.0
 10
5978.0
 20
846.0
 10
5977.0
 20
858.0
 10
5975.0
 20
859.0
 10
5975.0
 20
868.0
 10
5979.0
 20
869.0
 10
5980.0
 20
879.0
 10
5975.0
 20
877.0
 10
5968.0
 20
877.0
 10
5967.0
 20
884.0
 10
5974.0
 20
889.0
 10
5980.0
 20
889.0
 10
5981.0
 20
883.0
 10
5986.0
 20
883.0
 10
5986.0
 20
886.0
 10
5984.0
 20
887.0
 10
5984.0
 20
895.0
 10
5992.0
 20
896.0
 10
5994.0
 20
900.0
 10
6003.0
 20
900.0
 10
6004.0
 20
896.0
 10
6007.0
 20
896.0
 10
6007.0
 20
906.0
 10
6001.0
 20
907.0
 10
6001.0
 20
913.0
 10
6007.0
 20
914.0
 10
6007.0
 20
939.0
 10
6004.0
 20
939.0
 10
6002.0
 20
937.0
 10
6002.0
 20
933.0
 10
6000.0
 20
931.0
 10
5994.0
 20
931.0
 10
5993.0
 20
937.0
 10
5990.0
 20
939.0
 10
5991.0
 20
953.0
 10
5998.0
 20
953.0
 10
5999.0
 20
950.0
 10
6007.0
 20
950.0
 10
6007.0
 20
968.0
 10
6003.0
 20
968.0
 10
6002.0
 20
971.0
 10
5997.0
 20
972.0
 10
5995.0
 20
977.0
 10
5986.0
 20
978.0
 10
5987.0
 20
985.0
 10
5994.0
 20
985.0
 10
5994.0
 20
987.0
 10
5997.0
 20
990.0
 10
6000.0
 20
990.0
 10
5999.0
 20
992.0
 10
5994.0
 20
993.0
 10
5994.0
 20
1001.0
 10
6002.0
 20
1003.0
 10
6003.0
 20
1006.0
 10
6007.0
 20
1006.0
 10
6007.0
 20
1035.0
 10
6005.0
 20
1035.0
 10
6004.0
 20
1027.0
 10
5996.0
 20
1026.0
 10
5996.0
 20
1022.0
 10
6001.0
 20
1021.0
 10
6000.0
 20
1012.0
 10
5993.0
 20
1012.0
 10
5992.0
 20
1016.0
 10
5987.0
 20
1017.0
 10
5987.0
 20
1021.0
 10
5985.0
 20
1019.0
 10
5975.0
 20
1020.0
 10
5975.0
 20
1013.0
 10
5971.0
 20
1011.0
 10
5971.0
 20
1006.0
 10
5966.0
 20
1003.0
 10
5961.0
 20
1003.0
 10
5961.0
 20
999.0
 10
5963.0
 20
996.0
 10
5975.0
 20
993.0
 10
5975.0
 20
986.0
 10
5969.0
 20
985.0
 10
5967.0
 20
983.0
 10
5973.0
 20
979.0
 10
5972.0
 20
972.0
 10
5962.0
 20
971.0
 10
5961.0
 20
975.0
 10
5956.0
 20
976.0
 10
5956.0
 20
972.0
 10
5960.0
 20
969.0
 10
5960.0
 20
963.0
 10
5958.0
 20
960.0
 10
5941.0
 20
960.0
 10
5941.0
 20
973.0
 10
5945.0
 20
974.0
 10
5949.0
 20
978.0
 10
5952.0
 20
978.0
 10
5952.0
 20
980.0
 10
5948.0
 20
981.0
 10
5949.0
 20
997.0
 10
5952.0
 20
998.0
 10
5952.0
 20
1000.0
 10
5949.0
 20
1000.0
 10
5945.0
 20
997.0
 10
5947.0
 20
995.0
 10
5947.0
 20
987.0
 10
5943.0
 20
983.0
 10
5933.0
 20
982.0
 10
5933.0
 20
975.0
 10
5931.0
 20
973.0
 10
5918.0
 20
973.0
 10
5917.0
 20
977.0
 10
5915.0
 20
978.0
 10
5915.0
 20
972.0
 10
5911.0
 20
968.0
 10
5904.0
 20
969.0
 10
5905.0
 20
986.0
 10
5915.0
 20
987.0
 10
5915.0
 20
990.0
 10
5907.0
 20
991.0
 10
5905.0
 20
996.0
 10
5900.0
 20
997.0
 10
5900.0
 20
1005.0
 10
5913.0
 20
1008.0
 10
5913.0
 20
1014.0
 10
5916.0
 20
1015.0
 10
5916.0
 20
1018.0
 10
5908.0
 20
1018.0
 10
5907.0
 20
1022.0
 10
5898.0
 20
1021.0
 10
5895.0
 20
1017.0
 10
5890.0
 20
1017.0
 10
5892.0
 20
1013.0
 10
5892.0
 20
1007.0
 10
5890.0
 20
1003.0
 10
5897.0
 20
1001.0
 10
5897.0
 20
993.0
 10
5895.0
 20
991.0
 10
5898.0
 20
987.0
 10
5898.0
 20
973.0
 10
5891.0
 20
972.0
 10
5890.0
 20
978.0
 10
5887.0
 20
976.0
 10
5877.0
 20
977.0
 10
5876.0
 20
981.0
 10
5874.0
 20
981.0
 10
5874.0
 20
975.0
 10
5869.0
 20
974.0
 10
5869.0
 20
972.0
 10
5876.0
 20
966.0
 10
5878.0
 20
967.0
 10
5879.0
 20
973.0
 10
5887.0
 20
973.0
 10
5888.0
 20
968.0
 10
5892.0
 20
963.0
 10
5891.0
 20
954.0
  0
LWPOLYLINE
  5
4C
330
17
100
AcDbEntity
  8
CONTOUR
100
AcDbPolyline
 90
17
 70
1
 10
5926.0
 20
829.0
 10
5930.0
 20
829.0
 10
5931.0
 20
825.0
 10
5934.0
 20
825.0
 10
5934.0
 20
831.0
 10
5928.0
 20
831.0
 10
5926.0
 20
833.0
 10
5926.0
 20
843.0
 10
5921.0
 20
844.0
 10
5919.0
 20
847.0
 10
5919.0
 20
851.0
 10
5913.0
 20
850.0
 10
5913.0
 20
847.0
 10
5918.0
 20
844.0
 10
5917.0
 20
835.0
 10
5925.0
 20
835.0
 10
5926.0
 20
829.0
  0
ENDSEC
  0
SECTION
  2
OBJECTS
  0
DICTIONARY
  5
A
330
0
100
AcDbDictionary
281
1
  3
ACAD_COLOR
350
B
  3
ACAD_GROUP
350
C
  3
ACAD_LAYOUT
350
D
  3
ACAD_MATERIAL
350
E
  3
ACAD_MLEADERSTYLE
350
F
  3
ACAD_MLINESTYLE
350
10
  3
ACAD_PLOTSETTINGS
350
11
  3
ACAD_PLOTSTYLENAME
350
12
  3
ACAD_SCALELIST
350
14
  3
ACAD_TABLESTYLE
350
15
  3
ACAD_VISUALSTYLE
350
16
  3
EZDXF_META
350
2D
  0
DICTIONARY
  5
B
330
A
100
AcDbDictionary
281
1
  0
DICTIONARY
  5
C
330
A
100
AcDbDictionary
281
1
  0
DICTIONARY
  5
D
330
A
100
AcDbDictionary
281
1
  3
Model
350
1A
  3
Layout1
350
1E
  0
DICTIONARY
  5
E
330
A
100
AcDbDictionary
281
1
  3
ByBlock
350
1F
  3
ByLayer
350
20
  3
Global
350
21
  0
DICTIONARY
  5
F
330
A
100
AcDbDictionary
281
1
  3
Standard
350
2C
  0
DICTIONARY
  5
10
330
A
100
AcDbDictionary
281
1
  3
Standard
350
22
  0
DICTIONARY
  5
11
330
A
100
AcDbDictionary
281
1
  0
ACDBDICTIONARYWDFLT
  5
12
330
A
100
AcDbDictionary
281
1
  3
Normal
350
13
100
AcDbDictionaryWithDefault
340
13
  0
ACDBPLACEHOLDER
  5
13
330
12
  0
DICTIONARY
  5
14
330
A
100
AcDbDictionary
281
1
  0
DICTIONARY
  5
15
330
A
100
AcDbDictionary
281
1
  0
DICTIONARY
  5
16
330
A
100
AcDbDictionary
281
1
  0
LAYOUT
  5
1A
330
D
100
AcDbPlotSettings
  1

  4
A3
  6

 40
7.5
 41
20.0
 42
7.5
 43
20.0
 44
420.0
 45
297.0
 46
0.0
 47
0.0
 48
0.0
 49
0.0
140
0.0
141
0.0
142
1.0
143
1.0
 70
1024
 72
1
 73
0
 74
5
  7

 75
16
 76
0
 77
2
 78
300
147
1.0
148
0.0
149
0.0
100
AcDbLayout
  1
Model
 70
1
 71
0
 10
0.0
 20
0.0
 11
420.0
 21
297.0
 12
0.0
 22
0.0
 32
0.0
 14
1e+20
 24
1e+20
 34
1e+20
 15
-1e+20
 25
-1e+20
 35
-1e+20
146
0.0
 13
0.0
 23
0.0
 33
0.0
 16
1.0
 26
0.0
 36
0.0
 17
0.0
 27
1.0
 37
0.0
 76
1
330
17
  0
LAYOUT
  5
1E
330
D
100
AcDbPlotSettings
  1

  4
A3
  6

 40
7.5
 41
20.0
 42
7.5
 43
20.0
 44
420.0
 45
297.0
 46
0.0
 47
0.0
 48
0.0
 49
0.0
140
0.0
141
0.0
142
1.0
143
1.0
 70
0
 72
1
 73
0
 74
5
  7

 75
16
 76
0
 77
2
 78
300
147
1.0
148
0.0
149
0.0
100
AcDbLayout
  1
Layout1
 70
1
 71
1
 10
0.0
 20
0.0
 11
420.0
 21
297.0
 12
0.0
 22
0.0
 32
0.0
 14
1e+20
 24
1e+20
 34
1e+20
 15
-1e+20
 25
-1e+20
 35
-1e+20
146
0.0
 13
0.0
 23
0.0
 33
0.0
 16
1.0
 26
0.0
 36
0.0
 17
0.0
 27
1.0
 37
0.0
 76
1
330
1B
  0
MATERIAL
  5
1F
102
{ACAD_REACTORS
330
E
102
}
330
E
100
AcDbMaterial
  1
ByBlock
  2

 70
0
 40
1.0
 71
1
 41
1.0
 91
-1023410177
 42
1.0
 72
1
  3

 73
1
 74
1
 75
1
 44
0.5
 73
0
 45
1.0
 46
1.0
 77
1
  4

 78
1
 79
1
170
1
 48
1.0
171
1
  6

172
1
173
1
174
1
140
1.0
141
1.0
175
1
  7

176
1
177
1
178
1
143
1.0
179
1
  8

270
1
271
1
272
1
145
1.0
146
1.0
273
1
  9

274
1
275
1
276
1
 42
1.0
 72
1
  3

 73
1
 74
1
 75
1
 94
63
  0
MATERIAL
  5
20
102
{ACAD_REACTORS
330
E
102
}
330
E
100
AcDbMaterial
  1
ByLayer
  2

 70
0
 40
1.0
 71
1
 41
1.0
 91
-1023410177
 42
1.0
 72
1
  3

 73
1
 74
1
 75
1
 44
0.5
 73
0
 45
1.0
 46
1.0
 77
1
  4

 78
1
 79
1
170
1
 48
1.0
171
1
  6

172
1
173
1
174
1
140
1.0
141
1.0
175
1
  7

176
1
177
1
178
1
143
1.0
179
1
  8

270
1
271
1
272
1
145
1.0
146
1.0
273
1
  9

274
1
275
1
276
1
 42
1.0
 72
1
  3

 73
1
 74
1
 75
1
 94
63
  0
MATERIAL
  5
21
102
{ACAD_REACTORS
330
E
102
}
330
E
100
AcDbMaterial
  1
Global
  2

 70
0
 40
1.0
 71
1
 41
1.0
 91
-1023410177
 42
1.0
 72
1
  3

 73
1
 74
1
 75
1
 44
0.5
 73
0
 45
1.0
 46
1.0
 77
1
  4

 78
1
 79
1
170
1
 48
1.0
171
1
  6

172
1
173
1
174
1
140
1.0
141
1.0
175
1
  7

176
1
177
1
178
1
143
1.0
179
1
  8

270
1
271
1
272
1
145
1.0
146
1.0
273
1
  9

274
1
275
1
276
1
 42
1.0
 72
1
  3

 73
1
 74
1
 75
1
 94
63
  0
MLINESTYLE
  5
22
102
{ACAD_REACTORS
330
10
102
}
330
10
100
AcDbMlineStyle
  2
Standard
 70
0
  3

 62
256
 51
90.0
 52
90.0
 71
2
 49
0.5
 62
256
  6
BYLAYER
 49
-0.5
 62
256
  6
BYLAYER
  0
MLEADERSTYLE
  5
2C
102
{ACAD_REACTORS
330
F
102
}
330
F
100
AcDbMLeaderStyle
179
2
170
2
171
1
172
0
 90
2
 40
0.0
 41
0.0
173
1
 91
-1056964608
 92
-2
290
1
 42
2.0
291
1
 43
8.0
  3
Standard
 44
4.0
300

342
29
174
1
175
1
176
0
178
1
 93
-1056964608
 45
4.0
292
0
297
0
 46
4.0
 94
-1056964608
 47
1.0
 49
1.0
140
1.0
294
1
141
0.0
177
0
142
1.0
295
0
296
0
143
3.75
271
0
272
9
273
9
  0
DICTIONARY
  5
2D
330
A
100
AcDbDictionary
280
1
281
1
  3
CREATED_BY_EZDXF
350
2E
  3
WRITTEN_BY_EZDXF
350
4F
  0
DICTIONARYVAR
  5
2E
330
2D
100
DictionaryVariables
280
0
  1
1.4.3 @ 2026-03-10T19:38:54.453552+00:00
  0
DICTIONARYVAR
  5
4F
330
2D
100
DictionaryVariables
280
0
  1
1.4.3 @ 2026-03-10T19:38:54.563722+00:00
  0
ENDSEC
  0
EOF
