<?xml version="1.0" encoding="UTF-8" standalone="no"?>
<svg
   viewBox="0 0 793.70079 1122.5197"
   width="793.70081"
   height="1122.5197"
   version="1.1"
   id="svg271"
   xmlns="http://www.w3.org/2000/svg"
   xmlns:svg="http://www.w3.org/2000/svg">
  <desc
     id="desc212">CardboardPliers.DXF - scale = 1.000000, origin = (0.000000, 0.000000), method = manual</desc>
  <defs
     id="defs227" />
  <g
     id="g269">
    <path
       d="m 378.73865,418.91859 a 18.897638,18.897638 0 0 0 -2.68067,9.70209"
       style="fill:none;stroke:#000000;stroke-width:3.571;stroke-linecap:round"
       id="path229" />
    <path
       style="fill:none;stroke:#000000;stroke-width:3.571;stroke-linecap:round"
       d="m 405.1424,374.78495 -26.404,44.134"
       id="path231" />
    <path
       d="m 421.35947,365.58923 a 18.897638,18.897638 0 0 0 -16.21697,9.19554"
       style="fill:none;stroke:#000000;stroke-width:3.571;stroke-linecap:round"
       id="path233" />
    <path
       style="fill:none;stroke:#000000;stroke-width:3.571;stroke-linecap:round"
       d="m 441.7504,365.58895 h -20.391"
       id="path235" />
    <path
       d="m 457.96706,374.78477 a 18.897638,18.897638 0 0 0 -16.21697,-9.19554"
       style="fill:none;stroke:#000000;stroke-width:3.571;stroke-linecap:round"
       id="path237" />
    <path
       style="fill:none;stroke:#000000;stroke-width:3.571;stroke-linecap:round"
       d="m 484.3714,418.91895 -26.404,-44.134"
       id="path239" />
    <path
       d="m 487.05158,428.62068 a 18.897638,18.897638 0 0 0 -2.68067,-9.70209"
       style="fill:none;stroke:#000000;stroke-width:3.571;stroke-linecap:round"
       id="path241" />
    <path
       style="fill:none;stroke:#000000;stroke-width:3.571;stroke-linecap:round"
       d="m 487.0514,480.49995 v -51.879"
       id="path243" />
    <path
       d="m 487.05158,480.50004 a 77.111191,77.111191 0 0 0 16.62148,46.52951"
       style="fill:none;stroke:#000000;stroke-width:3.571;stroke-linecap:round"
       id="path245" />
    <path
       d="M 613.033,937.99215 A 534.48854,534.48854 0 0 0 503.67306,527.02955"
       style="fill:none;stroke:#000000;stroke-width:3.571;stroke-linecap:round"
       id="path247" />
    <path
       d="M 575.49511,970.31365 A 37.958833,37.958833 0 0 0 613.033,937.99215"
       style="fill:none;stroke:#000000;stroke-width:3.571;stroke-linecap:round"
       id="path249" />
    <path
       style="fill:none;stroke:#000000;stroke-width:3.571;stroke-linecap:round"
       d="m 287.6144,970.31395 h 287.881"
       id="path251" />
    <path
       d="m 250.07656,937.99215 a 37.958833,37.958833 0 0 0 37.53789,32.3215"
       style="fill:none;stroke:#000000;stroke-width:3.571;stroke-linecap:round"
       id="path253" />
    <path
       d="M 359.43649,527.02955 A 534.48854,534.48854 0 0 0 250.07656,937.99215"
       style="fill:none;stroke:#000000;stroke-width:3.571;stroke-linecap:round"
       id="path255" />
    <path
       d="m 359.43649,527.02955 a 77.111191,77.111191 0 0 0 16.62149,-46.52951"
       style="fill:none;stroke:#000000;stroke-width:3.571;stroke-linecap:round"
       id="path257" />
    <path
       style="fill:none;stroke:#000000;stroke-width:3.571;stroke-linecap:round"
       d="m 376.0584,428.62095 v 51.879"
       id="path259" />
  </g>
</svg>
